<svg id="my-svg" width="100%" xmlns="http://www.w3.org/2000/svg" xmlns:xlink="http://www.w3.org/1999/xlink" class="statediagram" style="max-width: 1757.26px; background-color: transparent;" viewBox="0 0 1757.2578125 1976" role="graphics-document document" aria-roledescription="stateDiagram"><style>#my-svg{font-family:"trebuchet ms",verdana,arial,sans-serif;font-size:16px;fill:#333;}@keyframes edge-animation-frame{from{stroke-dashoffset:0;}}@keyframes dash{to{stroke-dashoffset:0;}}#my-svg .edge-animation-slow{stroke-dasharray:9,5!important;stroke-dashoffset:900;animation:dash 50s linear infinite;stroke-linecap:round;}#my-svg .edge-animation-fast{stroke-dasharray:9,5!important;stroke-dashoffset:900;animation:dash 20s linear infinite;stroke-linecap:round;}#my-svg .error-icon{fill:#552222;}#my-svg .error-text{fill:#552222;stroke:#552222;}#my-svg .edge-thickness-normal{stroke-width:1px;}#my-svg .edge-thickness-thick{stroke-width:3.5px;}#my-svg .edge-pattern-solid{stroke-dasharray:0;}#my-svg .edge-thickness-invisible{stroke-width:0;fill:none;}#my-svg .edge-pattern-dashed{stroke-dasharray:3;}#my-svg .edge-pattern-dotted{stroke-dasharray:2;}#my-svg .marker{fill:#333333;stroke:#333333;}#my-svg .marker.cross{stroke:#333333;}#my-svg svg{font-family:"trebuchet ms",verdana,arial,sans-serif;font-size:16px;}#my-svg p{margin:0;}#my-svg defs [id$="-barbEnd"]{fill:#333333;stroke:#333333;}#my-svg g.stateGroup text{fill:#9370DB;stroke:none;font-size:10px;}#my-svg g.stateGroup text{fill:#333;stroke:none;font-size:10px;}#my-svg g.stateGroup .state-title{font-weight:bolder;fill:#131300;}#my-svg g.stateGroup rect{fill:#ECECFF;stroke:#9370DB;}#my-svg g.stateGroup line{stroke:#333333;stroke-width:1;}#my-svg .transition{stroke:#333333;stroke-width:1;fill:none;}#my-svg .stateGroup .composit{fill:white;border-bottom:1px;}#my-svg .stateGroup .alt-composit{fill:#e0e0e0;border-bottom:1px;}#my-svg .state-note{stroke:#aaaa33;fill:#fff5ad;}#my-svg .state-note text{fill:black;stroke:none;font-size:10px;}#my-svg .stateLabel .box{stroke:none;stroke-width:0;fill:#ECECFF;opacity:0.5;}#my-svg .edgeLabel .label rect{fill:#ECECFF;opacity:0.5;}#my-svg .edgeLabel{background-color:rgba(232,232,232, 0.8);text-align:center;}#my-svg .edgeLabel p{background-color:rgba(232,232,232, 0.8);}#my-svg .edgeLabel rect{opacity:0.5;background-color:rgba(232,232,232, 0.8);fill:rgba(232,232,232, 0.8);}#my-svg .edgeLabel .label text{fill:#333;}#my-svg .label div .edgeLabel{color:#333;}#my-svg .stateLabel text{fill:#131300;font-size:10px;font-weight:bold;}#my-svg .node circle.state-start{fill:#333333;stroke:#333333;}#my-svg .node .fork-join{fill:#333333;stroke:#333333;}#my-svg .node circle.state-end{fill:#9370DB;stroke:white;stroke-width:1.5;}#my-svg .end-state-inner{fill:white;stroke-width:1.5;}#my-svg .node rect{fill:#ECECFF;stroke:#9370DB;stroke-width:1px;}#my-svg .node polygon{fill:#ECECFF;stroke:#9370DB;stroke-width:1px;}#my-svg [id$="-barbEnd"]{fill:#333333;}#my-svg .statediagram-cluster rect{fill:#ECECFF;stroke:#9370DB;stroke-width:1px;}#my-svg .cluster-label,#my-svg .nodeLabel{color:#131300;}#my-svg .statediagram-cluster rect.outer{rx:5px;ry:5px;}#my-svg .statediagram-state .divider{stroke:#9370DB;}#my-svg .statediagram-state .title-state{rx:5px;ry:5px;}#my-svg .statediagram-cluster.statediagram-cluster .inner{fill:white;}#my-svg .statediagram-cluster.statediagram-cluster-alt .inner{fill:#f0f0f0;}#my-svg .statediagram-cluster .inner{rx:0;ry:0;}#my-svg .statediagram-state rect.basic{rx:5px;ry:5px;}#my-svg .statediagram-state rect.divider{stroke-dasharray:10,10;fill:#f0f0f0;}#my-svg .note-edge{stroke-dasharray:5;}#my-svg .statediagram-note rect{fill:#fff5ad;stroke:#aaaa33;stroke-width:1px;rx:0;ry:0;}#my-svg .statediagram-note rect{fill:#fff5ad;stroke:#aaaa33;stroke-width:1px;rx:0;ry:0;}#my-svg .statediagram-note text{fill:black;}#my-svg .statediagram-note .nodeLabel{color:black;}#my-svg .statediagram .edgeLabel{color:red;}#my-svg [id$="-dependencyStart"],#my-svg [id$="-dependencyEnd"]{fill:#333333;stroke:#333333;stroke-width:1;}#my-svg .statediagramTitleText{text-anchor:middle;font-size:18px;fill:#333;}#my-svg [data-look="neo"].statediagram-cluster rect{fill:#ECECFF;stroke:#9370DB;stroke-width:1;}#my-svg [data-look="neo"].statediagram-cluster rect.outer{rx:5px;ry:5px;filter:drop-shadow(1px 2px 2px rgba(185, 185, 185, 1));}#my-svg .node .neo-node{stroke:#9370DB;}#my-svg [data-look="neo"].node rect,#my-svg [data-look="neo"].cluster rect,#my-svg [data-look="neo"].node polygon{stroke:#9370DB;filter:drop-shadow(1px 2px 2px rgba(185, 185, 185, 1));}#my-svg [data-look="neo"].swimlane.cluster rect{filter:none;}#my-svg [data-look="neo"].node path{stroke:#9370DB;stroke-width:1px;}#my-svg [data-look="neo"].node .outer-path{filter:drop-shadow(1px 2px 2px rgba(185, 185, 185, 1));}#my-svg [data-look="neo"].node .neo-line path{stroke:#9370DB;filter:none;}#my-svg [data-look="neo"].node circle{stroke:#9370DB;filter:drop-shadow(1px 2px 2px rgba(185, 185, 185, 1));}#my-svg [data-look="neo"].node circle .state-start{fill:#000000;}#my-svg [data-look="neo"].icon-shape .icon{fill:#9370DB;filter:drop-shadow(1px 2px 2px rgba(185, 185, 185, 1));}#my-svg [data-look="neo"].icon-shape .icon-neo path{stroke:#9370DB;filter:drop-shadow(1px 2px 2px rgba(185, 185, 185, 1));}#my-svg :root{--mermaid-font-family:"trebuchet ms",verdana,arial,sans-serif;}</style><g><defs><marker id="my-svg_stateDiagram-barbEnd" refX="19" refY="7" markerWidth="20" markerHeight="14" markerUnits="userSpaceOnUse" orient="auto"><path d="M 19,7 L9,13 L14,7 L9,1 Z"/></marker></defs><g class="root"><g class="clusters"><g class="note-cluster" id="my-svg-state-待支付----parent-34"><rect x="8" y="372" width="212.03125" height="104" fill="none"/></g><g class="note-cluster" id="my-svg-state-支付中----parent-35"><rect x="120.21875" y="574" width="297.453125" height="104" fill="none"/></g><g class="note-cluster" id="my-svg-state-已支付----parent-36"><rect x="337.4453125" y="776" width="200.453125" height="104" fill="none"/></g><g class="note-cluster" id="my-svg-state-运输中----parent-37"><rect x="8" y="1320" width="235.765625" height="104" fill="none"/></g><g class="note-cluster" id="my-svg-state-已签收----parent-38"><rect x="709.24609375" y="1498" width="220.90625" height="104" fill="none"/></g></g><g class="edgePaths"><path d="M1067.332,22L1067.332,28.167C1067.332,34.333,1067.332,46.667,1067.332,59C1067.332,71.333,1067.332,83.667,1067.332,89.833L1067.332,96" id="my-svg-edge0" class="edge-thickness-normal edge-pattern-solid transition" style="fill:none;;;fill:none" data-edge="true" data-et="edge" data-id="edge0" data-points="W3sieCI6MTA2Ny4zMzIwMzEyNSwieSI6MjJ9LHsieCI6MTA2Ny4zMzIwMzEyNSwieSI6NTl9LHsieCI6MTA2Ny4zMzIwMzEyNSwieSI6OTZ9XQ==" data-look="classic" marker-end="url(#my-svg_stateDiagram-barbEnd)"/><path d="M1035.324,122.23L981.578,132.692C927.832,143.154,820.34,164.077,766.594,182.705C712.848,201.333,712.848,217.667,712.848,225.833L712.848,234" id="my-svg-edge1" class="edge-thickness-normal edge-pattern-solid transition" style="fill:none;;;fill:none" data-edge="true" data-et="edge" data-id="edge1" data-points="W3sieCI6MTAzNS4zMjQyMTg3NSwieSI6MTIyLjIzMDI4NjA2NjkxMDU3fSx7IngiOjcxMi44NDc2NTYyNSwieSI6MTg1fSx7IngiOjcxMi44NDc2NTYyNSwieSI6MjM0fV0=" data-look="classic" marker-end="url(#my-svg_stateDiagram-barbEnd)"/><path d="M1099.34,130.814L1118.852,139.845C1138.365,148.876,1177.389,166.938,1196.902,187.469C1216.414,208,1216.414,231,1216.414,254C1216.414,277,1216.414,300,1216.414,319.667C1216.414,339.333,1216.414,355.667,1216.414,372.5C1216.414,389.333,1216.414,406.667,1216.414,424C1216.414,441.333,1216.414,458.667,1216.414,475.5C1216.414,492.333,1216.414,508.667,1216.414,525C1216.414,541.333,1216.414,557.667,1216.414,574.5C1216.414,591.333,1216.414,608.667,1216.414,626C1216.414,643.333,1216.414,660.667,1216.414,677.5C1216.414,694.333,1216.414,710.667,1216.414,727C1216.414,743.333,1216.414,759.667,1216.414,776.5C1216.414,793.333,1216.414,810.667,1216.414,828C1216.414,845.333,1216.414,862.667,1216.414,877.5C1216.414,892.333,1216.414,904.667,1216.414,920.333C1216.414,936,1216.414,955,1216.414,976C1216.414,997,1216.414,1020,1216.414,1043C1216.414,1066,1216.414,1089,1216.414,1110C1216.414,1131,1216.414,1150,1216.414,1169C1216.414,1188,1216.414,1207,1216.414,1226C1216.414,1245,1216.414,1264,1216.414,1279.667C1216.414,1295.333,1216.414,1307.667,1216.414,1322.5C1216.414,1337.333,1216.414,1354.667,1216.414,1372C1216.414,1389.333,1216.414,1406.667,1216.414,1421.5C1216.414,1436.333,1216.414,1448.667,1216.414,1461C1216.414,1473.333,1216.414,1485.667,1216.414,1500.5C1216.414,1515.333,1216.414,1532.667,1216.414,1550C1216.414,1567.333,1216.414,1584.667,1216.414,1601.5C1216.414,1618.333,1216.414,1634.667,1216.414,1654.333C1216.414,1674,1216.414,1697,1216.414,1718C1216.414,1739,1216.414,1758,1194.812,1776.549C1173.21,1795.098,1130.006,1813.195,1108.404,1822.244L1086.802,1831.293" id="my-svg-edge2" class="edge-thickness-normal edge-pattern-solid transition" style="fill:none;;;fill:none" data-edge="true" data-et="edge" data-id="edge2" data-points="W3sieCI6MTA5OS4zMzk4NDM3NSwieSI6MTMwLjgxNDI1Mzg5NzU1MDEyfSx7IngiOjEyMTYuNDE0MDYyNSwieSI6MTg1fSx7IngiOjEyMTYuNDE0MDYyNSwieSI6MjU0fSx7IngiOjEyMTYuNDE0MDYyNSwieSI6MzIzfSx7IngiOjEyMTYuNDE0MDYyNSwieSI6MzcyfSx7IngiOjEyMTYuNDE0MDYyNSwieSI6NDI0fSx7IngiOjEyMTYuNDE0MDYyNSwieSI6NDc2fSx7IngiOjEyMTYuNDE0MDYyNSwieSI6NTI1fSx7IngiOjEyMTYuNDE0MDYyNSwieSI6NTc0fSx7IngiOjEyMTYuNDE0MDYyNSwieSI6NjI2fSx7IngiOjEyMTYuNDE0MDYyNSwieSI6Njc4fSx7IngiOjEyMTYuNDE0MDYyNSwieSI6NzI3fSx7IngiOjEyMTYuNDE0MDYyNSwieSI6Nzc2fSx7IngiOjEyMTYuNDE0MDYyNSwieSI6ODI4fSx7IngiOjEyMTYuNDE0MDYyNSwieSI6ODgwfSx7IngiOjEyMTYuNDE0MDYyNSwieSI6OTE3fSx7IngiOjEyMTYuNDE0MDYyNSwieSI6OTc0fSx7IngiOjEyMTYuNDE0MDYyNSwieSI6MTA0M30seyJ4IjoxMjE2LjQxNDA2MjUsInkiOjExMTJ9LHsieCI6MTIxNi40MTQwNjI1LCJ5IjoxMTY5fSx7IngiOjEyMTYuNDE0MDYyNSwieSI6MTIyNn0seyJ4IjoxMjE2LjQxNDA2MjUsInkiOjEyODN9LHsieCI6MTIxNi40MTQwNjI1LCJ5IjoxMzIwfSx7IngiOjEyMTYuNDE0MDYyNSwieSI6MTM3Mn0seyJ4IjoxMjE2LjQxNDA2MjUsInkiOjE0MjR9LHsieCI6MTIxNi40MTQwNjI1LCJ5IjoxNDYxfSx7IngiOjEyMTYuNDE0MDYyNSwieSI6MTQ5OH0seyJ4IjoxMjE2LjQxNDA2MjUsInkiOjE1NTB9LHsieCI6MTIxNi40MTQwNjI1LCJ5IjoxNjAyfSx7IngiOjEyMTYuNDE0MDYyNSwieSI6MTY1MX0seyJ4IjoxMjE2LjQxNDA2MjUsInkiOjE3MjB9LHsieCI6MTIxNi40MTQwNjI1LCJ5IjoxNzc3fSx7IngiOjEwODYuODAyNDA2OTUyNDQ1NCwieSI6MTgzMS4yOTI5MDMwNTAwOTF9XQ==" data-look="classic" marker-end="url(#my-svg_stateDiagram-barbEnd)"/><path d="M744.855,259.2L810.309,269.833C875.763,280.467,1006.671,301.733,1072.124,320.533C1137.578,339.333,1137.578,355.667,1137.578,372.5C1137.578,389.333,1137.578,406.667,1137.578,424C1137.578,441.333,1137.578,458.667,1137.578,475.5C1137.578,492.333,1137.578,508.667,1137.578,525C1137.578,541.333,1137.578,557.667,1137.578,574.5C1137.578,591.333,1137.578,608.667,1137.578,626C1137.578,643.333,1137.578,660.667,1137.578,677.5C1137.578,694.333,1137.578,710.667,1137.578,727C1137.578,743.333,1137.578,759.667,1137.578,776.5C1137.578,793.333,1137.578,810.667,1137.578,828C1137.578,845.333,1137.578,862.667,1137.578,877.5C1137.578,892.333,1137.578,904.667,1122.843,917.808C1108.108,930.95,1078.638,944.899,1063.903,951.874L1049.168,958.849" id="my-svg-edge3" class="edge-thickness-normal edge-pattern-solid transition" style="fill:none;;;fill:none" data-edge="true" data-et="edge" data-id="edge3" data-points="W3sieCI6NzQ0Ljg1NTQ2ODc1LCJ5IjoyNTkuMTk5ODYwMjA1NDYxMTZ9LHsieCI6MTEzNy41NzgxMjUsInkiOjMyM30seyJ4IjoxMTM3LjU3ODEyNSwieSI6MzcyfSx7IngiOjExMzcuNTc4MTI1LCJ5Ijo0MjR9LHsieCI6MTEzNy41NzgxMjUsInkiOjQ3Nn0seyJ4IjoxMTM3LjU3ODEyNSwieSI6NTI1fSx7IngiOjExMzcuNTc4MTI1LCJ5Ijo1NzR9LHsieCI6MTEzNy41NzgxMjUsInkiOjYyNn0seyJ4IjoxMTM3LjU3ODEyNSwieSI6Njc4fSx7IngiOjExMzcuNTc4MTI1LCJ5Ijo3Mjd9LHsieCI6MTEzNy41NzgxMjUsInkiOjc3Nn0seyJ4IjoxMTM3LjU3ODEyNSwieSI6ODI4fSx7IngiOjExMzcuNTc4MTI1LCJ5Ijo4ODB9LHsieCI6MTEzNy41NzgxMjUsInkiOjkxN30seyJ4IjoxMDQ5LjE2Nzk2ODc1LCJ5Ijo5NTguODQ5MDYwODg4MTgyNH1d" data-look="classic" marker-end="url(#my-svg_stateDiagram-barbEnd)"/><path d="M744.855,260.973L792.305,271.311C839.755,281.649,934.655,302.324,982.105,320.829C1029.555,339.333,1029.555,355.667,1029.555,372.5C1029.555,389.333,1029.555,406.667,1029.555,424C1029.555,441.333,1029.555,458.667,1029.555,475.5C1029.555,492.333,1029.555,508.667,1029.555,525C1029.555,541.333,1029.555,557.667,1029.555,574.5C1029.555,591.333,1029.555,608.667,1029.555,626C1029.555,643.333,1029.555,660.667,1029.555,677.5C1029.555,694.333,1029.555,710.667,1029.555,727C1029.555,743.333,1029.555,759.667,1029.555,776.5C1029.555,793.333,1029.555,810.667,1029.555,828C1029.555,845.333,1029.555,862.667,1029.555,877.5C1029.555,892.333,1029.555,904.667,1028.214,917C1026.873,929.333,1024.191,941.667,1022.85,947.833L1021.509,954" id="my-svg-edge4" class="edge-thickness-normal edge-pattern-solid transition" style="fill:none;;;fill:none" data-edge="true" data-et="edge" data-id="edge4" data-points="W3sieCI6NzQ0Ljg1NTQ2ODc1LCJ5IjoyNjAuOTczNDQ0OTk2NzMxNTN9LHsieCI6MTAyOS41NTQ2ODc1LCJ5IjozMjN9LHsieCI6MTAyOS41NTQ2ODc1LCJ5IjozNzJ9LHsieCI6MTAyOS41NTQ2ODc1LCJ5Ijo0MjR9LHsieCI6MTAyOS41NTQ2ODc1LCJ5Ijo0NzZ9LHsieCI6MTAyOS41NTQ2ODc1LCJ5Ijo1MjV9LHsieCI6MTAyOS41NTQ2ODc1LCJ5Ijo1NzR9LHsieCI6MTAyOS41NTQ2ODc1LCJ5Ijo2MjZ9LHsieCI6MTAyOS41NTQ2ODc1LCJ5Ijo2Nzh9LHsieCI6MTAyOS41NTQ2ODc1LCJ5Ijo3Mjd9LHsieCI6MTAyOS41NTQ2ODc1LCJ5Ijo3NzZ9LHsieCI6MTAyOS41NTQ2ODc1LCJ5Ijo4Mjh9LHsieCI6MTAyOS41NTQ2ODc1LCJ5Ijo4ODB9LHsieCI6MTAyOS41NTQ2ODc1LCJ5Ijo5MTd9LHsieCI6MTAyMS41MDkxMTQ1ODMzMzM0LCJ5Ijo5NTR9XQ==" data-look="classic" marker-end="url(#my-svg_stateDiagram-barbEnd)"/><path d="M744.855,272.766L759.136,281.138C773.417,289.51,801.978,306.255,816.258,322.794C830.539,339.333,830.539,355.667,759.324,371.896C688.109,388.125,545.68,404.251,474.465,412.313L403.25,420.376" id="my-svg-edge5" class="edge-thickness-normal edge-pattern-solid transition" style="fill:none;;;fill:none" data-edge="true" data-et="edge" data-id="edge5" data-points="W3sieCI6NzQ0Ljg1NTQ2ODc1LCJ5IjoyNzIuNzY1NTA4MzE0MjQ4NzN9LHsieCI6ODMwLjUzOTA2MjUsInkiOjMyM30seyJ4Ijo4MzAuNTM5MDYyNSwieSI6MzcyfSx7IngiOjQwMy4yNSwieSI6NDIwLjM3NjE4NjQyNjI2Mjk2fV0=" data-look="classic" marker-end="url(#my-svg_stateDiagram-barbEnd)"/><path d="M339.234,407.73L327.52,401.775C315.805,395.82,292.375,383.91,280.66,369.788C268.945,355.667,268.945,339.333,337.594,320.496C406.243,301.658,543.542,280.317,612.191,269.646L680.84,258.975" id="my-svg-edge6" class="edge-thickness-normal edge-pattern-solid transition" style="fill:none;;;fill:none" data-edge="true" data-et="edge" data-id="edge6" data-points="W3sieCI6MzM5LjIzNDM3NSwieSI6NDA3LjcyOTY0NzE2NjY0MTJ9LHsieCI6MjY4Ljk0NTMxMjUsInkiOjM3Mn0seyJ4IjoyNjguOTQ1MzEyNSwieSI6MzIzfSx7IngiOjY4MC44Mzk4NDM3NSwieSI6MjU4Ljk3NTI4MTM3MzQ3MjF9XQ==" data-look="classic" marker-end="url(#my-svg_stateDiagram-barbEnd)"/><path d="M403.25,431.379L435.508,438.816C467.767,446.253,532.284,461.126,564.542,476.73C596.801,492.333,596.801,508.667,596.801,525C596.801,541.333,596.801,557.667,596.801,571.167C596.801,584.667,596.801,595.333,596.801,600.667L596.801,606" id="my-svg-edge7" class="edge-thickness-normal edge-pattern-solid transition" style="fill:none;;;fill:none" data-edge="true" data-et="edge" data-id="edge7" data-points="W3sieCI6NDAzLjI1LCJ5Ijo0MzEuMzc5MDQxNjE1NDMzOX0seyJ4Ijo1OTYuODAwNzgxMjUsInkiOjQ3Nn0seyJ4Ijo1OTYuODAwNzgxMjUsInkiOjUyNX0seyJ4Ijo1OTYuODAwNzgxMjUsInkiOjU3NH0seyJ4Ijo1OTYuODAwNzgxMjUsInkiOjYwNn1d" data-look="classic" marker-end="url(#my-svg_stateDiagram-barbEnd)"/><path d="M628.809,632.642L665.236,640.202C701.664,647.762,774.52,662.881,810.947,678.607C847.375,694.333,847.375,710.667,847.375,727C847.375,743.333,847.375,759.667,847.375,773.167C847.375,786.667,847.375,797.333,847.375,802.667L847.375,808" id="my-svg-edge8" class="edge-thickness-normal edge-pattern-solid transition" style="fill:none;;;fill:none" data-edge="true" data-et="edge" data-id="edge8" data-points="W3sieCI6NjI4LjgwODU5Mzc1LCJ5Ijo2MzIuNjQyMzY4MzEwMjg3M30seyJ4Ijo4NDcuMzc1LCJ5Ijo2Nzh9LHsieCI6ODQ3LjM3NSwieSI6NzI3fSx7IngiOjg0Ny4zNzUsInkiOjc3Nn0seyJ4Ijo4NDcuMzc1LCJ5Ijo4MDh9XQ==" data-look="classic" marker-end="url(#my-svg_stateDiagram-barbEnd)"/><path d="M628.809,636.982L648.734,643.818C668.659,650.655,708.509,664.327,728.434,679.33C748.359,694.333,748.359,710.667,748.359,727C748.359,743.333,748.359,759.667,748.359,776.5C748.359,793.333,748.359,810.667,748.359,828C748.359,845.333,748.359,862.667,748.359,877.5C748.359,892.333,748.359,904.667,726.285,918.484C704.21,932.302,660.06,947.604,637.985,955.255L615.91,962.906" id="my-svg-edge9" class="edge-thickness-normal edge-pattern-solid transition" style="fill:none;;;fill:none" data-edge="true" data-et="edge" data-id="edge9" data-points="W3sieCI6NjI4LjgwODU5Mzc1LCJ5Ijo2MzYuOTgxOTMyNTI0MDM0Mn0seyJ4Ijo3NDguMzU5Mzc1LCJ5Ijo2Nzh9LHsieCI6NzQ4LjM1OTM3NSwieSI6NzI3fSx7IngiOjc0OC4zNTkzNzUsInkiOjc3Nn0seyJ4Ijo3NDguMzU5Mzc1LCJ5Ijo4Mjh9LHsieCI6NzQ4LjM1OTM3NSwieSI6ODgwfSx7IngiOjc0OC4zNTkzNzUsInkiOjkxN30seyJ4Ijo2MTUuOTEwMTU2MjUsInkiOjk2Mi45MDYyNDkyNTc3Mzc0fV0=" data-look="classic" marker-end="url(#my-svg_stateDiagram-barbEnd)"/><path d="M815.367,833.75L772.456,841.458C729.544,849.166,643.721,864.583,600.81,878.458C557.898,892.333,557.898,904.667,560.712,917C563.525,929.333,569.152,941.667,571.965,947.833L574.778,954" id="my-svg-edge10" class="edge-thickness-normal edge-pattern-solid transition" style="fill:none;;;fill:none" data-edge="true" data-et="edge" data-id="edge10" data-points="W3sieCI6ODE1LjM2NzE4NzUsInkiOjgzMy43NDk3MDk4NzUwNDM5fSx7IngiOjU1Ny44OTg0Mzc1LCJ5Ijo4ODB9LHsieCI6NTU3Ljg5ODQzNzUsInkiOjkxN30seyJ4Ijo1NzQuNzc4MTY2MTE4NDIxLCJ5Ijo5NTR9XQ==" data-look="classic" marker-end="url(#my-svg_stateDiagram-barbEnd)"/><path d="M847.375,848L847.375,853.333C847.375,858.667,847.375,869.333,847.375,880.833C847.375,892.333,847.375,904.667,870.338,918.542C893.301,932.418,939.227,947.836,962.189,955.545L985.152,963.254" id="my-svg-edge11" class="edge-thickness-normal edge-pattern-solid transition" style="fill:none;;;fill:none" data-edge="true" data-et="edge" data-id="edge11" data-points="W3sieCI6ODQ3LjM3NSwieSI6ODQ4fSx7IngiOjg0Ny4zNzUsInkiOjg4MH0seyJ4Ijo4NDcuMzc1LCJ5Ijo5MTd9LHsieCI6OTg1LjE1MjM0Mzc1LCJ5Ijo5NjMuMjU0Mzg4NTg4NTE5NX1d" data-look="classic" marker-end="url(#my-svg_stateDiagram-barbEnd)"/><path d="M583.902,994L583.902,1002.167C583.902,1010.333,583.902,1026.667,583.902,1043C583.902,1059.333,583.902,1075.667,583.902,1083.833L583.902,1092" id="my-svg-edge12" class="edge-thickness-normal edge-pattern-solid transition" style="fill:none;;;fill:none" data-edge="true" data-et="edge" data-id="edge12" data-points="W3sieCI6NTgzLjkwMjM0Mzc1LCJ5Ijo5OTR9LHsieCI6NTgzLjkwMjM0Mzc1LCJ5IjoxMDQzfSx7IngiOjU4My45MDIzNDM3NSwieSI6MTA5Mn1d" data-look="classic" marker-end="url(#my-svg_stateDiagram-barbEnd)"/><path d="M615.91,1125.48L633.133,1132.733C650.357,1139.986,684.803,1154.493,702.027,1167.913C719.25,1181.333,719.25,1193.667,719.25,1199.833L719.25,1206" id="my-svg-edge13" class="edge-thickness-normal edge-pattern-solid transition" style="fill:none;;;fill:none" data-edge="true" data-et="edge" data-id="edge13" data-points="W3sieCI6NjE1LjkxMDE1NjI1LCJ5IjoxMTI1LjQ3OTY5NjM4MzczNH0seyJ4Ijo3MTkuMjUsInkiOjExNjl9LHsieCI6NzE5LjI1LCJ5IjoxMjA2fV0=" data-look="classic" marker-end="url(#my-svg_stateDiagram-barbEnd)"/><path d="M744.845,1246L752.737,1252.167C760.628,1258.333,776.412,1270.667,784.304,1283C792.195,1295.333,792.195,1307.667,777.121,1319.842C762.047,1332.017,731.898,1344.035,716.824,1350.044L701.75,1356.052" id="my-svg-edge15" class="edge-thickness-normal edge-pattern-solid transition" style="fill:none;;;fill:none" data-edge="true" data-et="edge" data-id="edge15" data-points="W3sieCI6NzQ0Ljg0NDg0NjQ5MTIyOCwieSI6MTI0Nn0seyJ4Ijo3OTIuMTk1MzEyNSwieSI6MTI4M30seyJ4Ijo3OTIuMTk1MzEyNSwieSI6MTMyMH0seyJ4Ijo3MDEuNzUsInkiOjEzNTYuMDUyNDYxMzcyNjE5NX1d" data-look="classic" marker-end="url(#my-svg_stateDiagram-barbEnd)"/><path d="M644.047,1352L639.328,1346.667C634.609,1341.333,625.172,1330.667,620.453,1319.167C615.734,1307.667,615.734,1295.333,627.652,1282.604C639.57,1269.875,663.406,1256.75,675.324,1250.187L687.242,1243.625" id="my-svg-edge16" class="edge-thickness-normal edge-pattern-solid transition" style="fill:none;;;fill:none" data-edge="true" data-et="edge" data-id="edge16" data-points="W3sieCI6NjQ0LjA0Njg3NSwieSI6MTM1Mn0seyJ4Ijo2MTUuNzM0Mzc1LCJ5IjoxMzIwfSx7IngiOjYxNS43MzQzNzUsInkiOjEyODN9LHsieCI6Njg3LjI0MjE4NzUsInkiOjEyNDMuNjI0ODMwMTg4Njc5Mn1d" data-look="classic" marker-end="url(#my-svg_stateDiagram-barbEnd)"/><path d="M661.742,1392L661.742,1397.333C661.742,1402.667,661.742,1413.333,661.742,1424.833C661.742,1436.333,661.742,1448.667,661.742,1461C661.742,1473.333,661.742,1485.667,651.91,1497.167C642.078,1508.667,622.413,1519.333,612.581,1524.667L602.748,1530" id="my-svg-edge17" class="edge-thickness-normal edge-pattern-solid transition" style="fill:none;;;fill:none" data-edge="true" data-et="edge" data-id="edge17" data-points="W3sieCI6NjYxLjc0MjE4NzUsInkiOjEzOTJ9LHsieCI6NjYxLjc0MjE4NzUsInkiOjE0MjR9LHsieCI6NjYxLjc0MjE4NzUsInkiOjE0NjF9LHsieCI6NjYxLjc0MjE4NzUsInkiOjE0OTh9LHsieCI6NjAyLjc0ODQzNzQ5OTc3MDcsInkiOjE1MzB9XQ==" data-look="classic" marker-end="url(#my-svg_stateDiagram-barbEnd)"/><path d="M525.87,1537.74L504.255,1531.117C482.64,1524.494,439.411,1511.247,417.797,1498.457C396.182,1485.667,396.182,1473.333,396.182,1461C396.182,1448.667,396.182,1436.333,396.182,1421.5C396.182,1406.667,396.182,1389.333,396.182,1372C396.182,1354.667,396.182,1337.333,396.182,1322.5C396.182,1307.667,396.182,1295.333,444.692,1280.608C493.202,1265.882,590.222,1248.765,638.732,1240.206L687.242,1231.647" id="my-svg-edge18" class="edge-thickness-normal edge-pattern-solid transition" style="fill:none;;;fill:none" data-edge="true" data-et="edge" data-id="edge18" data-points="W3sieCI6NTI1Ljg2OTUzMTI0OTYyNzUsInkiOjE1MzcuNzQwMzQzNDQ2NDM0M30seyJ4IjozOTYuMTgyMDMxMjQ5NjI3NDcsInkiOjE0OTh9LHsieCI6Mzk2LjE4MjAzMTI0OTYyNzQ3LCJ5IjoxNDYxfSx7IngiOjM5Ni4xODIwMzEyNDk2Mjc0NywieSI6MTQyNH0seyJ4IjozOTYuMTgyMDMxMjQ5NjI3NDcsInkiOjEzNzJ9LHsieCI6Mzk2LjE4MjAzMTI0OTYyNzQ3LCJ5IjoxMzIwfSx7IngiOjM5Ni4xODIwMzEyNDk2Mjc0NywieSI6MTI4M30seyJ4Ijo2ODcuMjQyMTg3NSwieSI6MTIzMS42NDcyNDkxNTE4MDIzfV0=" data-look="classic" marker-end="url(#my-svg_stateDiagram-barbEnd)"/><path d="M751.258,1230.241L817.616,1239.034C883.974,1247.828,1016.69,1265.414,1083.048,1280.374C1149.406,1295.333,1149.406,1307.667,1149.406,1319.167C1149.406,1330.667,1149.406,1341.333,1149.406,1346.667L1149.406,1352" id="my-svg-edge19" class="edge-thickness-normal edge-pattern-solid transition" style="fill:none;;;fill:none" data-edge="true" data-et="edge" data-id="edge19" data-points="W3sieCI6NzUxLjI1NzgxMjUsInkiOjEyMzAuMjQxMzU0ODg1NTc5M30seyJ4IjoxMTQ5LjQwNjI1LCJ5IjoxMjgzfSx7IngiOjExNDkuNDA2MjUsInkiOjEzMjB9LHsieCI6MTE0OS40MDYyNSwieSI6MTM1Mn1d" data-look="classic" marker-end="url(#my-svg_stateDiagram-barbEnd)"/><path d="M751.258,1227.862L909.22,1237.052C1067.182,1246.241,1383.107,1264.621,1541.069,1279.977C1699.031,1295.333,1699.031,1307.667,1693.788,1319.167C1688.546,1330.667,1678.06,1341.333,1672.817,1346.667L1667.575,1352" id="my-svg-edge20" class="edge-thickness-normal edge-pattern-solid transition" style="fill:none;;;fill:none" data-edge="true" data-et="edge" data-id="edge20" data-points="W3sieCI6NzUxLjI1NzgxMjUsInkiOjEyMjcuODYyMDk0NTM2NDA4fSx7IngiOjE2OTkuMDMxMjUsInkiOjEyODN9LHsieCI6MTY5OS4wMzEyNSwieSI6MTMyMH0seyJ4IjoxNjY3LjU3NDUxOTIzMDc2OTMsInkiOjEzNTJ9XQ==" data-look="classic" marker-end="url(#my-svg_stateDiagram-barbEnd)"/><path d="M1607.906,1361.036L1582.95,1354.197C1557.993,1347.357,1508.081,1333.679,1483.124,1320.673C1458.168,1307.667,1458.168,1295.333,1340.35,1280.078C1222.531,1264.823,986.895,1246.646,869.076,1237.558L751.258,1228.469" id="my-svg-edge21" class="edge-thickness-normal edge-pattern-solid transition" style="fill:none;;;fill:none" data-edge="true" data-et="edge" data-id="edge21" data-points="W3sieCI6MTYwNy45MDYyNSwieSI6MTM2MS4wMzU4NDE0ODIyNDR9LHsieCI6MTQ1OC4xNjc5Njg3NSwieSI6MTMyMH0seyJ4IjoxNDU4LjE2Nzk2ODc1LCJ5IjoxMjgzfSx7IngiOjc1MS4yNTc4MTI1LCJ5IjoxMjI4LjQ2OTA3NjkzMzY0OTh9XQ==" data-look="classic" marker-end="url(#my-svg_stateDiagram-barbEnd)"/><path d="M1647.914,1392L1647.914,1397.333C1647.914,1402.667,1647.914,1413.333,1647.914,1424.833C1647.914,1436.333,1647.914,1448.667,1647.914,1461C1647.914,1473.333,1647.914,1485.667,1647.914,1500.5C1647.914,1515.333,1647.914,1532.667,1647.914,1550C1647.914,1567.333,1647.914,1584.667,1647.914,1601.5C1647.914,1618.333,1647.914,1634.667,1647.914,1654.333C1647.914,1674,1647.914,1697,1647.914,1718C1647.914,1739,1647.914,1758,1647.914,1777C1647.914,1796,1647.914,1815,1647.914,1834C1647.914,1853,1647.914,1872,1631.292,1888.692C1614.669,1905.384,1581.424,1919.768,1564.802,1926.959L1548.18,1934.151" id="my-svg-edge22" class="edge-thickness-normal edge-pattern-solid transition" style="fill:none;;;fill:none" data-edge="true" data-et="edge" data-id="edge22" data-points="W3sieCI6MTY0Ny45MTQwNjI1LCJ5IjoxMzkyfSx7IngiOjE2NDcuOTE0MDYyNSwieSI6MTQyNH0seyJ4IjoxNjQ3LjkxNDA2MjUsInkiOjE0NjF9LHsieCI6MTY0Ny45MTQwNjI1LCJ5IjoxNDk4fSx7IngiOjE2NDcuOTE0MDYyNSwieSI6MTU1MH0seyJ4IjoxNjQ3LjkxNDA2MjUsInkiOjE2MDJ9LHsieCI6MTY0Ny45MTQwNjI1LCJ5IjoxNjUxfSx7IngiOjE2NDcuOTE0MDYyNSwieSI6MTcyMH0seyJ4IjoxNjQ3LjkxNDA2MjUsInkiOjE3Nzd9LHsieCI6MTY0Ny45MTQwNjI1LCJ5IjoxODM0fSx7IngiOjE2NDcuOTE0MDYyNSwieSI6MTg5MX0seyJ4IjoxNTQ4LjE3OTY4NzUsInkiOjE5MzQuMTUxMzk2NTQ4NjU2N31d" data-look="classic" marker-end="url(#my-svg_stateDiagram-barbEnd)"/><path d="M1149.406,1392L1149.406,1397.333C1149.406,1402.667,1149.406,1413.333,1149.406,1424.833C1149.406,1436.333,1149.406,1448.667,1149.406,1461C1149.406,1473.333,1149.406,1485.667,1149.406,1500.5C1149.406,1515.333,1149.406,1532.667,1149.406,1550C1149.406,1567.333,1149.406,1584.667,1149.406,1601.5C1149.406,1618.333,1149.406,1634.667,1149.406,1651C1149.406,1667.333,1149.406,1683.667,1149.406,1691.833L1149.406,1700" id="my-svg-edge23" class="edge-thickness-normal edge-pattern-solid transition" style="fill:none;;;fill:none" data-edge="true" data-et="edge" data-id="edge23" data-points="W3sieCI6MTE0OS40MDYyNSwieSI6MTM5Mn0seyJ4IjoxMTQ5LjQwNjI1LCJ5IjoxNDI0fSx7IngiOjExNDkuNDA2MjUsInkiOjE0NjF9LHsieCI6MTE0OS40MDYyNSwieSI6MTQ5OH0seyJ4IjoxMTQ5LjQwNjI1LCJ5IjoxNTUwfSx7IngiOjExNDkuNDA2MjUsInkiOjE2MDJ9LHsieCI6MTE0OS40MDYyNSwieSI6MTY1MX0seyJ4IjoxMTQ5LjQwNjI1LCJ5IjoxNzAwfV0=" data-look="classic" marker-end="url(#my-svg_stateDiagram-barbEnd)"/><path d="M1181.414,1384.328L1198.582,1390.94C1215.75,1397.552,1250.086,1410.776,1267.254,1423.555C1284.422,1436.333,1284.422,1448.667,1284.422,1461C1284.422,1473.333,1284.422,1485.667,1284.422,1497.167C1284.422,1508.667,1284.422,1519.333,1284.422,1524.667L1284.422,1530" id="my-svg-edge24" class="edge-thickness-normal edge-pattern-solid transition" style="fill:none;;;fill:none" data-edge="true" data-et="edge" data-id="edge24" data-points="W3sieCI6MTE4MS40MTQwNjI1LCJ5IjoxMzg0LjMyNzUwODM5MDIzMjd9LHsieCI6MTI4NC40MjE4NzUsInkiOjE0MjR9LHsieCI6MTI4NC40MjE4NzUsInkiOjE0NjF9LHsieCI6MTI4NC40MjE4NzUsInkiOjE0OTh9LHsieCI6MTI4NC40MjE4NzUsInkiOjE1MzB9XQ==" data-look="classic" marker-end="url(#my-svg_stateDiagram-barbEnd)"/><path d="M1316.43,1556.49L1353.841,1564.075C1391.253,1571.66,1466.076,1586.83,1503.487,1602.582C1540.898,1618.333,1540.898,1634.667,1540.898,1651C1540.898,1667.333,1540.898,1683.667,1540.898,1691.833L1540.898,1700" id="my-svg-edge25" class="edge-thickness-normal edge-pattern-solid transition" style="fill:none;;;fill:none" data-edge="true" data-et="edge" data-id="edge25" data-points="W3sieCI6MTMxNi40Mjk2ODc1LCJ5IjoxNTU2LjQ4OTUwNjIyOTI0ODV9LHsieCI6MTU0MC44OTg0Mzc1LCJ5IjoxNjAyfSx7IngiOjE1NDAuODk4NDM3NSwieSI6MTY1MX0seyJ4IjoxNTQwLjg5ODQzNzUsInkiOjE3MDB9XQ==" data-look="classic" marker-end="url(#my-svg_stateDiagram-barbEnd)"/><path d="M1540.898,1740L1540.898,1746.167C1540.898,1752.333,1540.898,1764.667,1540.898,1777C1540.898,1789.333,1540.898,1801.667,1540.898,1807.833L1540.898,1814" id="my-svg-edge26" class="edge-thickness-normal edge-pattern-solid transition" style="fill:none;;;fill:none" data-edge="true" data-et="edge" data-id="edge26" data-points="W3sieCI6MTU0MC44OTg0Mzc1LCJ5IjoxNzQwfSx7IngiOjE1NDAuODk4NDM3NSwieSI6MTc3N30seyJ4IjoxNTQwLjg5ODQzNzUsInkiOjE4MTR9XQ==" data-look="classic" marker-end="url(#my-svg_stateDiagram-barbEnd)"/><path d="M1540.898,1854L1540.898,1860.167C1540.898,1866.333,1540.898,1878.667,1538.223,1891C1535.548,1903.333,1530.198,1915.667,1527.523,1921.833L1524.848,1928" id="my-svg-edge27" class="edge-thickness-normal edge-pattern-solid transition" style="fill:none;;;fill:none" data-edge="true" data-et="edge" data-id="edge27" data-points="W3sieCI6MTU0MC44OTg0Mzc1LCJ5IjoxODU0fSx7IngiOjE1NDAuODk4NDM3NSwieSI6MTg5MX0seyJ4IjoxNTI0Ljg0Nzg2MTg0MjEwNTIsInkiOjE5Mjh9XQ==" data-look="classic" marker-end="url(#my-svg_stateDiagram-barbEnd)"/><path d="M1495.369,1928L1488.954,1921.833C1482.54,1915.667,1469.711,1903.333,1463.297,1887.667C1456.883,1872,1456.883,1853,1456.883,1834C1456.883,1815,1456.883,1796,1456.883,1777C1456.883,1758,1456.883,1739,1456.883,1718C1456.883,1697,1456.883,1674,1456.883,1654.333C1456.883,1634.667,1456.883,1618.333,1433.474,1603.108C1410.065,1587.884,1363.247,1573.767,1339.839,1566.709L1316.43,1559.651" id="my-svg-edge28" class="edge-thickness-normal edge-pattern-solid transition" style="fill:none;;;fill:none" data-edge="true" data-et="edge" data-id="edge28" data-points="W3sieCI6MTQ5NS4zNjg2OTUxNzU0Mzg3LCJ5IjoxOTI4fSx7IngiOjE0NTYuODgyODEyNSwieSI6MTg5MX0seyJ4IjoxNDU2Ljg4MjgxMjUsInkiOjE4MzR9LHsieCI6MTQ1Ni44ODI4MTI1LCJ5IjoxNzc3fSx7IngiOjE0NTYuODgyODEyNSwieSI6MTcyMH0seyJ4IjoxNDU2Ljg4MjgxMjUsInkiOjE2NTF9LHsieCI6MTQ1Ni44ODI4MTI1LCJ5IjoxNjAyfSx7IngiOjEzMTYuNDI5Njg3NSwieSI6MTU1OS42NTA5MTczMjcyOTM0fV0=" data-look="classic" marker-end="url(#my-svg_stateDiagram-barbEnd)"/><path d="M1484.164,1936.858L1462.208,1929.215C1440.253,1921.572,1396.341,1906.286,1374.385,1889.143C1352.43,1872,1352.43,1853,1352.43,1834C1352.43,1815,1352.43,1796,1352.43,1777C1352.43,1758,1352.43,1739,1352.43,1718C1352.43,1697,1352.43,1674,1352.43,1654.333C1352.43,1634.667,1352.43,1618.333,1352.43,1601.5C1352.43,1584.667,1352.43,1567.333,1352.43,1550C1352.43,1532.667,1352.43,1515.333,1352.43,1500.5C1352.43,1485.667,1352.43,1473.333,1352.43,1461C1352.43,1448.667,1352.43,1436.333,1323.927,1422.866C1295.424,1409.399,1238.419,1394.799,1209.917,1387.498L1181.414,1380.198" id="my-svg-edge29" class="edge-thickness-normal edge-pattern-solid transition" style="fill:none;;;fill:none" data-edge="true" data-et="edge" data-id="edge29" data-points="W3sieCI6MTQ4NC4xNjQwNjI1LCJ5IjoxOTM2Ljg1NzgxNzY0Mzk3MTd9LHsieCI6MTM1Mi40Mjk2ODc1LCJ5IjoxODkxfSx7IngiOjEzNTIuNDI5Njg3NSwieSI6MTgzNH0seyJ4IjoxMzUyLjQyOTY4NzUsInkiOjE3Nzd9LHsieCI6MTM1Mi40Mjk2ODc1LCJ5IjoxNzIwfSx7IngiOjEzNTIuNDI5Njg3NSwieSI6MTY1MX0seyJ4IjoxMzUyLjQyOTY4NzUsInkiOjE2MDJ9LHsieCI6MTM1Mi40Mjk2ODc1LCJ5IjoxNTUwfSx7IngiOjEzNTIuNDI5Njg3NSwieSI6MTQ5OH0seyJ4IjoxMzUyLjQyOTY4NzUsInkiOjE0NjF9LHsieCI6MTM1Mi40Mjk2ODc1LCJ5IjoxNDI0fSx7IngiOjExODEuNDE0MDYyNSwieSI6MTM4MC4xOTgwOTkwNDk1MjQ3fV0=" data-look="classic" marker-end="url(#my-svg_stateDiagram-barbEnd)"/><path d="M1252.414,1554.979L1202.037,1562.816C1151.66,1570.653,1050.906,1586.326,1000.529,1602.33C950.152,1618.333,950.152,1634.667,950.152,1651C950.152,1667.333,950.152,1683.667,950.152,1691.833L950.152,1700" id="my-svg-edge30" class="edge-thickness-normal edge-pattern-solid transition" style="fill:none;;;fill:none" data-edge="true" data-et="edge" data-id="edge30" data-points="W3sieCI6MTI1Mi40MTQwNjI1LCJ5IjoxNTU0Ljk3OTIzNDEwNDIxNX0seyJ4Ijo5NTAuMTUyMzQzNzUsInkiOjE2MDJ9LHsieCI6OTUwLjE1MjM0Mzc1LCJ5IjoxNjUxfSx7IngiOjk1MC4xNTIzNDM3NSwieSI6MTcwMH1d" data-look="classic" marker-end="url(#my-svg_stateDiagram-barbEnd)"/><path d="M1149.406,1740L1149.406,1746.167C1149.406,1752.333,1149.406,1764.667,1138.796,1779.59C1128.185,1794.513,1106.965,1812.027,1096.354,1820.783L1085.744,1829.54" id="my-svg-edge31" class="edge-thickness-normal edge-pattern-solid transition" style="fill:none;;;fill:none" data-edge="true" data-et="edge" data-id="edge31" data-points="W3sieCI6MTE0OS40MDYyNSwieSI6MTc0MH0seyJ4IjoxMTQ5LjQwNjI1LCJ5IjoxNzc3fSx7IngiOjEwODUuNzQzODA3MjI4ODQzNSwieSI6MTgyOS41NDAxNDg0NTk3NDN9XQ==" data-look="classic" marker-end="url(#my-svg_stateDiagram-barbEnd)"/><path d="M1017.16,994L1017.16,1002.167C1017.16,1010.333,1017.16,1026.667,1017.16,1046.333C1017.16,1066,1017.16,1089,1017.16,1110C1017.16,1131,1017.16,1150,1017.16,1169C1017.16,1188,1017.16,1207,1017.16,1226C1017.16,1245,1017.16,1264,1017.16,1279.667C1017.16,1295.333,1017.16,1307.667,1017.16,1322.5C1017.16,1337.333,1017.16,1354.667,1017.16,1372C1017.16,1389.333,1017.16,1406.667,1017.16,1421.5C1017.16,1436.333,1017.16,1448.667,1017.16,1461C1017.16,1473.333,1017.16,1485.667,1017.16,1500.5C1017.16,1515.333,1017.16,1532.667,1017.16,1550C1017.16,1567.333,1017.16,1584.667,1017.16,1601.5C1017.16,1618.333,1017.16,1634.667,1017.16,1654.333C1017.16,1674,1017.16,1697,1017.16,1718C1017.16,1739,1017.16,1758,1026.823,1776.218C1036.486,1794.436,1055.812,1811.871,1065.475,1820.589L1075.138,1829.307" id="my-svg-edge32" class="edge-thickness-normal edge-pattern-solid transition" style="fill:none;;;fill:none" data-edge="true" data-et="edge" data-id="edge32" data-points="W3sieCI6MTAxNy4xNjAxNTYyNSwieSI6OTk0fSx7IngiOjEwMTcuMTYwMTU2MjUsInkiOjEwNDN9LHsieCI6MTAxNy4xNjAxNTYyNSwieSI6MTExMn0seyJ4IjoxMDE3LjE2MDE1NjI1LCJ5IjoxMTY5fSx7IngiOjEwMTcuMTYwMTU2MjUsInkiOjEyMjZ9LHsieCI6MTAxNy4xNjAxNTYyNSwieSI6MTI4M30seyJ4IjoxMDE3LjE2MDE1NjI1LCJ5IjoxMzIwfSx7IngiOjEwMTcuMTYwMTU2MjUsInkiOjEzNzJ9LHsieCI6MTAxNy4xNjAxNTYyNSwieSI6MTQyNH0seyJ4IjoxMDE3LjE2MDE1NjI1LCJ5IjoxNDYxfSx7IngiOjEwMTcuMTYwMTU2MjUsInkiOjE0OTh9LHsieCI6MTAxNy4xNjAxNTYyNSwieSI6MTU1MH0seyJ4IjoxMDE3LjE2MDE1NjI1LCJ5IjoxNjAyfSx7IngiOjEwMTcuMTYwMTU2MjUsInkiOjE2NTF9LHsieCI6MTAxNy4xNjAxNTYyNSwieSI6MTcyMH0seyJ4IjoxMDE3LjE2MDE1NjI1LCJ5IjoxNzc3fSx7IngiOjEwNzUuMTM3NTA5ODM2ODI3NiwieSI6MTgyOS4zMDY1MTMxNDA3ODA3fV0=" data-look="classic" marker-end="url(#my-svg_stateDiagram-barbEnd)"/><path d="M950.152,1740L950.152,1746.167C950.152,1752.333,950.152,1764.667,970.781,1779.865C991.409,1795.063,1032.665,1813.127,1053.293,1822.158L1073.921,1831.19" id="my-svg-edge33" class="edge-thickness-normal edge-pattern-solid transition" style="fill:none;;;fill:none" data-edge="true" data-et="edge" data-id="edge33" data-points="W3sieCI6OTUwLjE1MjM0Mzc1LCJ5IjoxNzQwfSx7IngiOjk1MC4xNTIzNDM3NSwieSI6MTc3N30seyJ4IjoxMDczLjkyMTQzMTIwMDAzNTQsInkiOjE4MzEuMTg5ODI2MDk0MzAyNn1d" data-look="classic" marker-end="url(#my-svg_stateDiagram-barbEnd)"/><path d="M680.84,257.688L586.369,268.573C491.898,279.459,302.957,301.229,208.486,320.281C114.016,339.333,114.016,355.667,114.016,368C114.016,380.333,114.016,388.667,114.016,392.833L114.016,397" id="my-svg-待支付-待支付----note-34" class="edge-thickness-normal edge-pattern-solid transition note-edge" style="fill:none;;;fill:none" data-edge="true" data-et="edge" data-id="待支付-待支付----note-34" data-points="W3sieCI6NjgwLjgzOTg0Mzc1LCJ5IjoyNTcuNjg4MDc3NzAzMzQxOH0seyJ4IjoxMTQuMDE1NjI1LCJ5IjozMjN9LHsieCI6MTE0LjAxNTYyNSwieSI6MzcyfSx7IngiOjExNC4wMTU2MjUsInkiOjM5N31d" data-look="classic"/><path d="M339.234,440.27L327.52,446.225C315.805,452.18,292.375,464.09,280.66,478.212C268.945,492.333,268.945,508.667,268.945,525C268.945,541.333,268.945,557.667,268.945,570C268.945,582.333,268.945,590.667,268.945,594.833L268.945,599" id="my-svg-支付中-支付中----note-35" class="edge-thickness-normal edge-pattern-solid transition note-edge" style="fill:none;;;fill:none" data-edge="true" data-et="edge" data-id="支付中-支付中----note-35" data-points="W3sieCI6MzM5LjIzNDM3NSwieSI6NDQwLjI3MDM1MjgzMzM1ODh9LHsieCI6MjY4Ljk0NTMxMjUsInkiOjQ3Nn0seyJ4IjoyNjguOTQ1MzEyNSwieSI6NTI1fSx7IngiOjI2OC45NDUzMTI1LCJ5Ijo1NzR9LHsieCI6MjY4Ljk0NTMxMjUsInkiOjU5OX1d" data-look="classic"/><path d="M564.793,636.459L543.606,643.383C522.419,650.306,480.046,664.153,458.859,679.243C437.672,694.333,437.672,710.667,437.672,727C437.672,743.333,437.672,759.667,437.672,772C437.672,784.333,437.672,792.667,437.672,796.833L437.672,801" id="my-svg-已支付-已支付----note-36" class="edge-thickness-normal edge-pattern-solid transition note-edge" style="fill:none;;;fill:none" data-edge="true" data-et="edge" data-id="已支付-已支付----note-36" data-points="W3sieCI6NTY0Ljc5Mjk2ODc1LCJ5Ijo2MzYuNDU5NDg0MDA3MTY3OX0seyJ4Ijo0MzcuNjcxODc1LCJ5Ijo2Nzh9LHsieCI6NDM3LjY3MTg3NSwieSI6NzI3fSx7IngiOjQzNy42NzE4NzUsInkiOjc3Nn0seyJ4Ijo0MzcuNjcxODc1LCJ5Ijo4MDF9XQ==" data-look="classic"/><path d="M687.242,1229.075L593.682,1238.062C500.122,1247.05,313.003,1265.025,219.443,1280.179C125.883,1295.333,125.883,1307.667,125.883,1318C125.883,1328.333,125.883,1336.667,125.883,1340.833L125.883,1345" id="my-svg-运输中-运输中----note-37" class="edge-thickness-normal edge-pattern-solid transition note-edge" style="fill:none;;;fill:none" data-edge="true" data-et="edge" data-id="运输中-运输中----note-37" data-points="W3sieCI6Njg3LjI0MjE4NzUsInkiOjEyMjkuMDc0NzMyMzkzMjUzNX0seyJ4IjoxMjUuODgyODEyNSwieSI6MTI4M30seyJ4IjoxMjUuODgyODEyNSwieSI6MTMyMH0seyJ4IjoxMjUuODgyODEyNSwieSI6MTM0NX1d" data-look="classic"/><path d="M1117.398,1377.048L1067.782,1384.873C1018.165,1392.699,918.932,1408.349,869.316,1422.341C819.699,1436.333,819.699,1448.667,819.699,1461C819.699,1473.333,819.699,1485.667,819.699,1496C819.699,1506.333,819.699,1514.667,819.699,1518.833L819.699,1523" id="my-svg-已签收-已签收----note-38" class="edge-thickness-normal edge-pattern-solid transition note-edge" style="fill:none;;;fill:none" data-edge="true" data-et="edge" data-id="已签收-已签收----note-38" data-points="W3sieCI6MTExNy4zOTg0Mzc1LCJ5IjoxMzc3LjA0ODEzNjk1ODcxMX0seyJ4Ijo4MTkuNjk5MjE4NzUsInkiOjE0MjR9LHsieCI6ODE5LjY5OTIxODc1LCJ5IjoxNDYxfSx7IngiOjgxOS42OTkyMTg3NSwieSI6MTQ5OH0seyJ4Ijo4MTkuNjk5MjE4NzUsInkiOjE1MjN9XQ==" data-look="classic"/><path d="M572.263,1132L569.935,1136C567.607,1140,562.952,1148,569.159,1152C575.367,1156,592.438,1156,598.645,1152C604.853,1148,600.197,1140,597.869,1136L595.542,1132" id="my-svg-edge14" class="edge-thickness-normal edge-pattern-solid transition" style="fill:none;;;fill:none" data-edge="true" data-et="edge" data-id="edge14" data-points="W3sieCI6NTcyLjI2MzEzOTIwNDU0NTQsInkiOjExMzJ9LHsieCI6NTU4LjI5NjA5Mzc1LCJ5IjoxMTU2fSx7IngiOjYwOS41MDg1OTM3NSwieSI6MTE1Nn0seyJ4Ijo1OTUuNTQxNTQ4Mjk1NDU0NiwieSI6MTEzMn1d" data-look="classic" marker-end="url(#my-svg_stateDiagram-barbEnd)"/></g><g class="edgeLabels"><g class="edgeLabel" transform="translate(1067.33203125, 59)"><g class="label" data-id="edge0" transform="translate(-32.0078125, -12)"><foreignObject width="64.015625" height="24"><div xmlns="http://www.w3.org/1999/xhtml" class="labelBkg" style="display: table-cell; white-space: nowrap; line-height: 1.5; max-width: 200px; text-align: center;"><span class="edgeLabel"><p>添加商品</p></span></div></foreignObject></g></g><g class="edgeLabel" transform="translate(712.84765625, 185)"><g class="label" data-id="edge1" transform="translate(-61.65625, -24)"><foreignObject width="123.3125" height="48"><div xmlns="http://www.w3.org/1999/xhtml" class="labelBkg" style="display: table-cell; white-space: nowrap; line-height: 1.5; max-width: 200px; text-align: center;"><span class="edgeLabel"><p>提交订单<br />POST /api/orders</p></span></div></foreignObject></g></g><g class="edgeLabel" transform="translate(1216.4140625, 1043)"><g class="label" data-id="edge2" transform="translate(-34.2265625, -12)"><foreignObject width="68.453125" height="24"><div xmlns="http://www.w3.org/1999/xhtml" class="labelBkg" style="display: table-cell; white-space: nowrap; line-height: 1.5; max-width: 200px; text-align: center;"><span class="edgeLabel"><p>清空/过期</p></span></div></foreignObject></g></g><g class="edgeLabel" transform="translate(1137.578125, 626)"><g class="label" data-id="edge3" transform="translate(-56.015625, -24)"><foreignObject width="112.03125" height="48"><div xmlns="http://www.w3.org/1999/xhtml" class="labelBkg" style="display: table-cell; white-space: nowrap; line-height: 1.5; max-width: 200px; text-align: center;"><span class="edgeLabel"><p>超时未付<br />30min 自动取消</p></span></div></foreignObject></g></g><g class="edgeLabel" transform="translate(1029.5546875, 626)"><g class="label" data-id="edge4" transform="translate(-32.0078125, -12)"><foreignObject width="64.015625" height="24"><div xmlns="http://www.w3.org/1999/xhtml" class="labelBkg" style="display: table-cell; white-space: nowrap; line-height: 1.5; max-width: 200px; text-align: center;"><span class="edgeLabel"><p>用户取消</p></span></div></foreignObject></g></g><g class="edgeLabel" transform="translate(830.5390625, 323)"><g class="label" data-id="edge5" transform="translate(-94.125, -24)"><foreignObject width="188.25" height="48"><div xmlns="http://www.w3.org/1999/xhtml" class="labelBkg" style="display: table-cell; white-space: nowrap; line-height: 1.5; max-width: 200px; text-align: center;"><span class="edgeLabel"><p>发起支付<br />POST /api/payment/create</p></span></div></foreignObject></g></g><g class="edgeLabel" transform="translate(268.9453125, 323)"><g class="label" data-id="edge6" transform="translate(-32.0078125, -12)"><foreignObject width="64.015625" height="24"><div xmlns="http://www.w3.org/1999/xhtml" class="labelBkg" style="display: table-cell; white-space: nowrap; line-height: 1.5; max-width: 200px; text-align: center;"><span class="edgeLabel"><p>支付失败</p></span></div></foreignObject></g></g><g class="edgeLabel" transform="translate(596.80078125, 525)"><g class="label" data-id="edge7" transform="translate(-51.8828125, -24)"><foreignObject width="103.765625" height="48"><div xmlns="http://www.w3.org/1999/xhtml" class="labelBkg" style="display: table-cell; white-space: nowrap; line-height: 1.5; max-width: 200px; text-align: center;"><span class="edgeLabel"><p>支付成功<br />Webhook 确认</p></span></div></foreignObject></g></g><g class="edgeLabel" transform="translate(847.375, 727)"><g class="label" data-id="edge8" transform="translate(-48.0078125, -24)"><foreignObject width="96.015625" height="48"><div xmlns="http://www.w3.org/1999/xhtml" class="labelBkg" style="display: table-cell; white-space: nowrap; line-height: 1.5; max-width: 200px; text-align: center;"><span class="edgeLabel"><p>风控审核<br />规则引擎评分</p></span></div></foreignObject></g></g><g class="edgeLabel" transform="translate(748.359375, 828)"><g class="label" data-id="edge9" transform="translate(-32.0078125, -12)"><foreignObject width="64.015625" height="24"><div xmlns="http://www.w3.org/1999/xhtml" class="labelBkg" style="display: table-cell; white-space: nowrap; line-height: 1.5; max-width: 200px; text-align: center;"><span class="edgeLabel"><p>审核通过</p></span></div></foreignObject></g></g><g class="edgeLabel" transform="translate(557.8984375, 917)"><g class="label" data-id="edge10" transform="translate(-32.0078125, -12)"><foreignObject width="64.015625" height="24"><div xmlns="http://www.w3.org/1999/xhtml" class="labelBkg" style="display: table-cell; white-space: nowrap; line-height: 1.5; max-width: 200px; text-align: center;"><span class="edgeLabel"><p>审核通过</p></span></div></foreignObject></g></g><g class="edgeLabel" transform="translate(847.375, 917)"><g class="label" data-id="edge11" transform="translate(-60.453125, -12)"><foreignObject width="120.90625" height="24"><div xmlns="http://www.w3.org/1999/xhtml" class="labelBkg" style="display: table-cell; white-space: nowrap; line-height: 1.5; max-width: 200px; text-align: center;"><span class="edgeLabel"><p>审核拒绝 → 退款</p></span></div></foreignObject></g></g><g class="edgeLabel" transform="translate(583.90234375, 1043)"><g class="label" data-id="edge12" transform="translate(-40.0078125, -24)"><foreignObject width="80.015625" height="48"><div xmlns="http://www.w3.org/1999/xhtml" class="labelBkg" style="display: table-cell; white-space: nowrap; line-height: 1.5; max-width: 200px; text-align: center;"><span class="edgeLabel"><p>出库完成<br />生成运单号</p></span></div></foreignObject></g></g><g class="edgeLabel" transform="translate(719.25, 1169)"><g class="label" data-id="edge13" transform="translate(-32.0078125, -12)"><foreignObject width="64.015625" height="24"><div xmlns="http://www.w3.org/1999/xhtml" class="labelBkg" style="display: table-cell; white-space: nowrap; line-height: 1.5; max-width: 200px; text-align: center;"><span class="edgeLabel"><p>物流揽收</p></span></div></foreignObject></g></g><g class="edgeLabel" transform="translate(583.90234375, 1172)"><g class="label" data-id="edge14" transform="translate(-48.0078125, -12)"><foreignObject width="96.015625" height="24"><div xmlns="http://www.w3.org/1999/xhtml" class="labelBkg" style="display: table-cell; white-space: nowrap; line-height: 1.5; max-width: 200px; text-align: center;"><span class="edgeLabel"><p>更新物流轨迹</p></span></div></foreignObject></g></g><g class="edgeLabel" transform="translate(792.1953125, 1283)"><g class="label" data-id="edge15" transform="translate(-40.0078125, -12)"><foreignObject width="80.015625" height="24"><div xmlns="http://www.w3.org/1999/xhtml" class="labelBkg" style="display: table-cell; white-space: nowrap; line-height: 1.5; max-width: 200px; text-align: center;"><span class="edgeLabel"><p>到达目的国</p></span></div></foreignObject></g></g><g class="edgeLabel" transform="translate(615.734375, 1283)"><g class="label" data-id="edge16" transform="translate(-32.0078125, -12)"><foreignObject width="64.015625" height="24"><div xmlns="http://www.w3.org/1999/xhtml" class="labelBkg" style="display: table-cell; white-space: nowrap; line-height: 1.5; max-width: 200px; text-align: center;"><span class="edgeLabel"><p>查验放行</p></span></div></foreignObject></g></g><g class="edgeLabel" transform="translate(661.7421875, 1461)"><g class="label" data-id="edge17" transform="translate(-32.0078125, -12)"><foreignObject width="64.015625" height="24"><div xmlns="http://www.w3.org/1999/xhtml" class="labelBkg" style="display: table-cell; white-space: nowrap; line-height: 1.5; max-width: 200px; text-align: center;"><span class="edgeLabel"><p>查验异常</p></span></div></foreignObject></g></g><g class="edgeLabel" transform="translate(396.18203124962747, 1372)"><g class="label" data-id="edge18" transform="translate(-48.0078125, -12)"><foreignObject width="96.015625" height="24"><div xmlns="http://www.w3.org/1999/xhtml" class="labelBkg" style="display: table-cell; white-space: nowrap; line-height: 1.5; max-width: 200px; text-align: center;"><span class="edgeLabel"><p>补充资料通过</p></span></div></foreignObject></g></g><g class="edgeLabel" transform="translate(1149.40625, 1283)"><g class="label" data-id="edge19" transform="translate(-32.0078125, -12)"><foreignObject width="64.015625" height="24"><div xmlns="http://www.w3.org/1999/xhtml" class="labelBkg" style="display: table-cell; white-space: nowrap; line-height: 1.5; max-width: 200px; text-align: center;"><span class="edgeLabel"><p>客户签收</p></span></div></foreignObject></g></g><g class="edgeLabel" transform="translate(1699.03125, 1283)"><g class="label" data-id="edge20" transform="translate(-50.2265625, -12)"><foreignObject width="100.453125" height="24"><div xmlns="http://www.w3.org/1999/xhtml" class="labelBkg" style="display: table-cell; white-space: nowrap; line-height: 1.5; max-width: 200px; text-align: center;"><span class="edgeLabel"><p>地址/联系失败</p></span></div></foreignObject></g></g><g class="edgeLabel" transform="translate(1458.16796875, 1283)"><g class="label" data-id="edge21" transform="translate(-32.0078125, -12)"><foreignObject width="64.015625" height="24"><div xmlns="http://www.w3.org/1999/xhtml" class="labelBkg" style="display: table-cell; white-space: nowrap; line-height: 1.5; max-width: 200px; text-align: center;"><span class="edgeLabel"><p>重新配送</p></span></div></foreignObject></g></g><g class="edgeLabel" transform="translate(1647.9140625, 1720)"><g class="label" data-id="edge22" transform="translate(-40.0078125, -12)"><foreignObject width="80.015625" height="24"><div xmlns="http://www.w3.org/1999/xhtml" class="labelBkg" style="display: table-cell; white-space: nowrap; line-height: 1.5; max-width: 200px; text-align: center;"><span class="edgeLabel"><p>退回寄件人</p></span></div></foreignObject></g></g><g class="edgeLabel" transform="translate(1149.40625, 1550)"><g class="label" data-id="edge23" transform="translate(-36.453125, -24)"><foreignObject width="72.90625" height="48"><div xmlns="http://www.w3.org/1999/xhtml" class="labelBkg" style="display: table-cell; white-space: nowrap; line-height: 1.5; max-width: 200px; text-align: center;"><span class="edgeLabel"><p>自动确认<br />7天无售后</p></span></div></foreignObject></g></g><g class="edgeLabel" transform="translate(1284.421875, 1461)"><g class="label" data-id="edge24" transform="translate(-48.0078125, -12)"><foreignObject width="96.015625" height="24"><div xmlns="http://www.w3.org/1999/xhtml" class="labelBkg" style="display: table-cell; white-space: nowrap; line-height: 1.5; max-width: 200px; text-align: center;"><span class="edgeLabel"><p>申请退货退款</p></span></div></foreignObject></g></g><g class="edgeLabel" transform="translate(1540.8984375, 1651)"><g class="label" data-id="edge25" transform="translate(-32.0078125, -12)"><foreignObject width="64.015625" height="24"><div xmlns="http://www.w3.org/1999/xhtml" class="labelBkg" style="display: table-cell; white-space: nowrap; line-height: 1.5; max-width: 200px; text-align: center;"><span class="edgeLabel"><p>商家同意</p></span></div></foreignObject></g></g><g class="edgeLabel" transform="translate(1540.8984375, 1777)"><g class="label" data-id="edge26" transform="translate(-32.0078125, -12)"><foreignObject width="64.015625" height="24"><div xmlns="http://www.w3.org/1999/xhtml" class="labelBkg" style="display: table-cell; white-space: nowrap; line-height: 1.5; max-width: 200px; text-align: center;"><span class="edgeLabel"><p>客户发货</p></span></div></foreignObject></g></g><g class="edgeLabel" transform="translate(1540.8984375, 1891)"><g class="label" data-id="edge27" transform="translate(-32.0078125, -12)"><foreignObject width="64.015625" height="24"><div xmlns="http://www.w3.org/1999/xhtml" class="labelBkg" style="display: table-cell; white-space: nowrap; line-height: 1.5; max-width: 200px; text-align: center;"><span class="edgeLabel"><p>仓库签收</p></span></div></foreignObject></g></g><g class="edgeLabel" transform="translate(1456.8828125, 1777)"><g class="label" data-id="edge28" transform="translate(-32.0078125, -12)"><foreignObject width="64.015625" height="24"><div xmlns="http://www.w3.org/1999/xhtml" class="labelBkg" style="display: table-cell; white-space: nowrap; line-height: 1.5; max-width: 200px; text-align: center;"><span class="edgeLabel"><p>质检通过</p></span></div></foreignObject></g></g><g class="edgeLabel" transform="translate(1352.4296875, 1720)"><g class="label" data-id="edge29" transform="translate(-84.453125, -12)"><foreignObject width="168.90625" height="24"><div xmlns="http://www.w3.org/1999/xhtml" class="labelBkg" style="display: table-cell; white-space: nowrap; line-height: 1.5; max-width: 200px; text-align: center;"><span class="edgeLabel"><p>质检不通过 → 退回客户</p></span></div></foreignObject></g></g><g class="edgeLabel" transform="translate(950.15234375, 1651)"><g class="label" data-id="edge30" transform="translate(-32.0078125, -24)"><foreignObject width="64.015625" height="48"><div xmlns="http://www.w3.org/1999/xhtml" class="labelBkg" style="display: table-cell; white-space: nowrap; line-height: 1.5; max-width: 200px; text-align: center;"><span class="edgeLabel"><p>退款完成<br />原路返回</p></span></div></foreignObject></g></g><g class="edgeLabel"><g class="label" data-id="edge31" transform="translate(0, 0)"><foreignObject width="0" height="0"><div xmlns="http://www.w3.org/1999/xhtml" class="labelBkg" style="display: table-cell; white-space: nowrap; line-height: 1.5; max-width: 200px; text-align: center;"><span class="edgeLabel"></span></div></foreignObject></g></g><g class="edgeLabel"><g class="label" data-id="edge32" transform="translate(0, 0)"><foreignObject width="0" height="0"><div xmlns="http://www.w3.org/1999/xhtml" class="labelBkg" style="display: table-cell; white-space: nowrap; line-height: 1.5; max-width: 200px; text-align: center;"><span class="edgeLabel"></span></div></foreignObject></g></g><g class="edgeLabel"><g class="label" data-id="edge33" transform="translate(0, 0)"><foreignObject width="0" height="0"><div xmlns="http://www.w3.org/1999/xhtml" class="labelBkg" style="display: table-cell; white-space: nowrap; line-height: 1.5; max-width: 200px; text-align: center;"><span class="edgeLabel"></span></div></foreignObject></g></g><g class="edgeLabel"><g class="label" data-id="待支付-待支付----note-34" transform="translate(0, 0)"><foreignObject width="0" height="0"><div xmlns="http://www.w3.org/1999/xhtml" class="labelBkg" style="display: table-cell; white-space: nowrap; line-height: 1.5; max-width: 200px; text-align: center;"><span class="edgeLabel"></span></div></foreignObject></g></g><g class="edgeLabel"><g class="label" data-id="支付中-支付中----note-35" transform="translate(0, 0)"><foreignObject width="0" height="0"><div xmlns="http://www.w3.org/1999/xhtml" class="labelBkg" style="display: table-cell; white-space: nowrap; line-height: 1.5; max-width: 200px; text-align: center;"><span class="edgeLabel"></span></div></foreignObject></g></g><g class="edgeLabel"><g class="label" data-id="已支付-已支付----note-36" transform="translate(0, 0)"><foreignObject width="0" height="0"><div xmlns="http://www.w3.org/1999/xhtml" class="labelBkg" style="display: table-cell; white-space: nowrap; line-height: 1.5; max-width: 200px; text-align: center;"><span class="edgeLabel"></span></div></foreignObject></g></g><g class="edgeLabel"><g class="label" data-id="运输中-运输中----note-37" transform="translate(0, 0)"><foreignObject width="0" height="0"><div xmlns="http://www.w3.org/1999/xhtml" class="labelBkg" style="display: table-cell; white-space: nowrap; line-height: 1.5; max-width: 200px; text-align: center;"><span class="edgeLabel"></span></div></foreignObject></g></g><g class="edgeLabel"><g class="label" data-id="已签收-已签收----note-38" transform="translate(0, 0)"><foreignObject width="0" height="0"><div xmlns="http://www.w3.org/1999/xhtml" class="labelBkg" style="display: table-cell; white-space: nowrap; line-height: 1.5; max-width: 200px; text-align: center;"><span class="edgeLabel"></span></div></foreignObject></g></g></g><g class="nodes"><g class="node default" id="my-svg-state-root_start-0" data-look="classic" transform="translate(1067.33203125, 15)"><circle class="state-start" r="7" width="14" height="14"/></g><g class="node  statediagram-state" id="my-svg-state-购物车-2" data-look="classic" transform="translate(1067.33203125, 116)"><rect class="basic label-container" style="" rx="5" ry="5" x="-32.0078125" y="-20" width="64.015625" height="40"/><g class="label" style="" transform="translate(-24.0078125, -12)"><rect/><foreignObject width="48.015625" height="24"><div xmlns="http://www.w3.org/1999/xhtml" style="display: table-cell; white-space: nowrap; line-height: 1.5; max-width: 200px; text-align: center;"><span class="nodeLabel markdown-node-label"><p>购物车</p></span></div></foreignObject></g></g><g class="node  statediagram-state" id="my-svg-state-待支付-34" data-look="classic" transform="translate(712.84765625, 254)"><rect class="basic label-container" style="" rx="5" ry="5" x="-32.0078125" y="-20" width="64.015625" height="40"/><g class="label" style="" transform="translate(-24.0078125, -12)"><rect/><foreignObject width="48.015625" height="24"><div xmlns="http://www.w3.org/1999/xhtml" style="display: table-cell; white-space: nowrap; line-height: 1.5; max-width: 200px; text-align: center;"><span class="nodeLabel markdown-node-label"><p>待支付</p></span></div></foreignObject></g></g><g class="node default" id="my-svg-state-root_end-33" data-look="classic" transform="translate(1080.33984375, 1834)"><g class="outer-path"><path d="M7 0 C7 0.40517908122283747, 6.964012880168563 0.816513743121899, 6.893654271085456 1.2155372436685123 C6.823295662002349 1.6145607442151257, 6.716427752933756 2.013397210557766, 6.5778483455013586 2.394141003279681 C6.439268938068961 2.7748847960015954, 6.26476736710249 3.149104622578984, 6.062177826491071 3.4999999999999996 C5.859588285879653 3.8508953774210153, 5.622755194947063 4.189128084166967, 5.362311101832846 4.499513267805774 C5.10186700871863 4.809898451444582, 4.809898451444583 5.10186700871863, 4.499513267805775 5.362311101832846 C4.189128084166968 5.622755194947063, 3.8508953774210166 5.859588285879652, 3.500000000000001 6.06217782649107 C3.149104622578985 6.264767367102489, 2.7748847960015963 6.439268938068961, 2.3941410032796817 6.5778483455013586 C2.013397210557767 6.716427752933756, 1.6145607442151264 6.823295662002349, 1.2155372436685128 6.893654271085456 C0.8165137431218992 6.964012880168563, 0.4051790812228379 7, 4.286263797015736e-16 7 C-0.405179081222837 7, -0.8165137431218985 6.964012880168563, -1.2155372436685121 6.893654271085456 C-1.6145607442151257 6.823295662002349, -2.0133972105577667 6.716427752933756, -2.394141003279681 6.5778483455013586 C-2.774884796001595 6.439268938068961, -3.149104622578983 6.26476736710249, -3.4999999999999982 6.062177826491071 C-3.8508953774210135 5.859588285879653, -4.189128084166966 5.6227551949470636, -4.499513267805773 5.362311101832848 C-4.809898451444581 5.101867008718632, -5.101867008718628 4.809898451444586, -5.3623111018328435 4.499513267805779 C-5.622755194947059 4.189128084166971, -5.859588285879649 3.8508953774210206, -6.062177826491068 3.5000000000000053 C-6.264767367102486 3.14910462257899, -6.439268938068958 2.774884796001602, -6.577848345501356 2.394141003279688 C-6.716427752933754 2.0133972105577738, -6.823295662002347 1.614560744215134, -6.893654271085454 1.215537243668521 C-6.9640128801685615 0.816513743121908, -6.999999999999999 0.4051790812228472, -7 1.0183126166254463e-14 C-7.000000000000001 -0.40517908122282686, -6.964012880168565 -0.8165137431218878, -6.893654271085459 -1.215537243668501 C-6.823295662002352 -1.6145607442151142, -6.716427752933759 -2.0133972105577542, -6.577848345501363 -2.394141003279669 C-6.439268938068967 -2.7748847960015834, -6.264767367102496 -3.149104622578972, -6.062177826491078 -3.4999999999999876 C-5.859588285879661 -3.8508953774210033, -5.6227551949470715 -4.1891280841669545, -5.362311101832856 -4.499513267805763 C-5.10186700871864 -4.809898451444571, -4.809898451444594 -5.10186700871862, -4.499513267805787 -5.362311101832836 C-4.189128084166979 -5.622755194947053, -3.850895377421028 -5.859588285879643, -3.5000000000000133 -6.062177826491062 C-3.1491046225789985 -6.264767367102482, -2.774884796001611 -6.439268938068954, -2.3941410032796973 -6.577848345501353 C-2.0133972105577835 -6.716427752933752, -1.6145607442151435 -6.823295662002345, -1.2155372436685306 -6.893654271085453 C-0.8165137431219176 -6.9640128801685615, -0.40517908122285695 -6.999999999999999, -1.9937625952807352e-14 -7 C0.4051790812228171 -7.000000000000001, 0.8165137431218781 -6.964012880168565, 1.2155372436684913 -6.89365427108546 C1.6145607442151044 -6.823295662002354, 2.013397210557745 -6.716427752933763, 2.3941410032796595 -6.5778483455013665 C2.774884796001574 -6.43926893806897, 3.149104622578963 -6.2647673671025, 3.499999999999979 -6.062177826491083 C3.8508953774209953 -5.859588285879665, 4.189128084166947 -5.622755194947077, 4.499513267805756 -5.362311101832862 C4.809898451444564 -5.1018670087186475, 5.101867008718613 -4.809898451444602, 5.362311101832829 -4.499513267805796 C5.622755194947046 -4.189128084166989, 5.859588285879637 -3.8508953774210393, 6.062177826491056 -3.500000000000025 C6.2647673671024755 -3.1491046225790105, 6.439268938068949 -2.774884796001623, 6.577848345501348 -2.3941410032797092 C6.716427752933747 -2.0133972105577955, 6.823295662002342 -1.6145607442151562, 6.893654271085451 -1.2155372436685434 C6.96401288016856 -0.8165137431219307, 6.982275711847575 -0.2025895406114567, 7 -3.2800750208310675e-14 C7.017724288152425 0.2025895406113911, 7.017724288152424 -0.2025895406114242, 7 0" stroke="none" stroke-width="0" fill="#ECECFF" style=""/><path d="M7 0 C7 0.40517908122283747, 6.964012880168563 0.816513743121899, 6.893654271085456 1.2155372436685123 C6.823295662002349 1.6145607442151257, 6.716427752933756 2.013397210557766, 6.5778483455013586 2.394141003279681 C6.439268938068961 2.7748847960015954, 6.26476736710249 3.149104622578984, 6.062177826491071 3.4999999999999996 C5.859588285879653 3.8508953774210153, 5.622755194947063 4.189128084166967, 5.362311101832846 4.499513267805774 C5.10186700871863 4.809898451444582, 4.809898451444583 5.10186700871863, 4.499513267805775 5.362311101832846 C4.189128084166968 5.622755194947063, 3.8508953774210166 5.859588285879652, 3.500000000000001 6.06217782649107 C3.149104622578985 6.264767367102489, 2.7748847960015963 6.439268938068961, 2.3941410032796817 6.5778483455013586 C2.013397210557767 6.716427752933756, 1.6145607442151264 6.823295662002349, 1.2155372436685128 6.893654271085456 C0.8165137431218992 6.964012880168563, 0.4051790812228379 7, 4.286263797015736e-16 7 C-0.405179081222837 7, -0.8165137431218985 6.964012880168563, -1.2155372436685121 6.893654271085456 C-1.6145607442151257 6.823295662002349, -2.0133972105577667 6.716427752933756, -2.394141003279681 6.5778483455013586 C-2.774884796001595 6.439268938068961, -3.149104622578983 6.26476736710249, -3.4999999999999982 6.062177826491071 C-3.8508953774210135 5.859588285879653, -4.189128084166966 5.6227551949470636, -4.499513267805773 5.362311101832848 C-4.809898451444581 5.101867008718632, -5.101867008718628 4.809898451444586, -5.3623111018328435 4.499513267805779 C-5.622755194947059 4.189128084166971, -5.859588285879649 3.8508953774210206, -6.062177826491068 3.5000000000000053 C-6.264767367102486 3.14910462257899, -6.439268938068958 2.774884796001602, -6.577848345501356 2.394141003279688 C-6.716427752933754 2.0133972105577738, -6.823295662002347 1.614560744215134, -6.893654271085454 1.215537243668521 C-6.9640128801685615 0.816513743121908, -6.999999999999999 0.4051790812228472, -7 1.0183126166254463e-14 C-7.000000000000001 -0.40517908122282686, -6.964012880168565 -0.8165137431218878, -6.893654271085459 -1.215537243668501 C-6.823295662002352 -1.6145607442151142, -6.716427752933759 -2.0133972105577542, -6.577848345501363 -2.394141003279669 C-6.439268938068967 -2.7748847960015834, -6.264767367102496 -3.149104622578972, -6.062177826491078 -3.4999999999999876 C-5.859588285879661 -3.8508953774210033, -5.6227551949470715 -4.1891280841669545, -5.362311101832856 -4.499513267805763 C-5.10186700871864 -4.809898451444571, -4.809898451444594 -5.10186700871862, -4.499513267805787 -5.362311101832836 C-4.189128084166979 -5.622755194947053, -3.850895377421028 -5.859588285879643, -3.5000000000000133 -6.062177826491062 C-3.1491046225789985 -6.264767367102482, -2.774884796001611 -6.439268938068954, -2.3941410032796973 -6.577848345501353 C-2.0133972105577835 -6.716427752933752, -1.6145607442151435 -6.823295662002345, -1.2155372436685306 -6.893654271085453 C-0.8165137431219176 -6.9640128801685615, -0.40517908122285695 -6.999999999999999, -1.9937625952807352e-14 -7 C0.4051790812228171 -7.000000000000001, 0.8165137431218781 -6.964012880168565, 1.2155372436684913 -6.89365427108546 C1.6145607442151044 -6.823295662002354, 2.013397210557745 -6.716427752933763, 2.3941410032796595 -6.5778483455013665 C2.774884796001574 -6.43926893806897, 3.149104622578963 -6.2647673671025, 3.499999999999979 -6.062177826491083 C3.8508953774209953 -5.859588285879665, 4.189128084166947 -5.622755194947077, 4.499513267805756 -5.362311101832862 C4.809898451444564 -5.1018670087186475, 5.101867008718613 -4.809898451444602, 5.362311101832829 -4.499513267805796 C5.622755194947046 -4.189128084166989, 5.859588285879637 -3.8508953774210393, 6.062177826491056 -3.500000000000025 C6.2647673671024755 -3.1491046225790105, 6.439268938068949 -2.774884796001623, 6.577848345501348 -2.3941410032797092 C6.716427752933747 -2.0133972105577955, 6.823295662002342 -1.6145607442151562, 6.893654271085451 -1.2155372436685434 C6.96401288016856 -0.8165137431219307, 6.982275711847575 -0.2025895406114567, 7 -3.2800750208310675e-14 C7.017724288152425 0.2025895406113911, 7.017724288152424 -0.2025895406114242, 7 0" stroke="#333333" stroke-width="2" fill="none" stroke-dasharray="0 0" style=""/><g><path d="M2.5 0 C2.5 0.14470681472244193, 2.487147457203058 0.29161205111496386, 2.46201938253052 0.4341204441673258 C2.436891307857982 0.5766288372196877, 2.3987241974763416 0.7190704323420595, 2.3492315519647713 0.8550503583141718 C2.299738906453201 0.991030284286284, 2.2374169168223177 1.124680222349637, 2.165063509461097 1.2499999999999998 C2.092710102099876 1.3753197776503625, 2.0081268553382365 1.496117172916774, 1.915111107797445 1.6069690242163481 C1.8220953602566536 1.7178208755159223, 1.7178208755159226 1.8220953602566536, 1.6069690242163484 1.915111107797445 C1.4961171729167742 2.0081268553382365, 1.375319777650363 2.0927101020998755, 1.2500000000000002 2.1650635094610964 C1.1246802223496375 2.2374169168223172, 0.9910302842862845 2.2997389064532, 0.8550503583141721 2.349231551964771 C0.7190704323420597 2.3987241974763416, 0.576628837219688 2.436891307857982, 0.43412044416732604 2.46201938253052 C0.291612051114964 2.487147457203058, 0.14470681472244212 2.5, 1.5308084989341916e-16 2.5 C-0.1447068147224418 2.5, -0.2916120511149638 2.487147457203058, -0.43412044416732576 2.46201938253052 C-0.5766288372196877 2.436891307857982, -0.7190704323420595 2.3987241974763416, -0.8550503583141718 2.3492315519647713 C-0.991030284286284 2.299738906453201, -1.124680222349637 2.2374169168223177, -1.2499999999999996 2.165063509461097 C-1.375319777650362 2.092710102099876, -1.4961171729167733 2.008126855338237, -1.6069690242163475 1.9151111077974459 C-1.7178208755159217 1.8220953602566548, -1.822095360256653 1.7178208755159234, -1.9151111077974443 1.6069690242163495 C-2.0081268553382357 1.4961171729167755, -2.0927101020998746 1.3753197776503645, -2.1650635094610955 1.250000000000002 C-2.2374169168223164 1.1246802223496395, -2.2997389064531992 0.9910302842862865, -2.34923155196477 0.8550503583141743 C-2.3987241974763407 0.7190704323420621, -2.436891307857981 0.5766288372196907, -2.4620193825305194 0.434120444167329 C-2.487147457203058 0.29161205111496724, -2.5 0.14470681472244545, -2.5 3.636830773662308e-15 C-2.5 -0.14470681472243818, -2.4871474572030587 -0.2916120511149599, -2.4620193825305208 -0.4341204441673218 C-2.436891307857983 -0.5766288372196837, -2.398724197476343 -0.7190704323420553, -2.3492315519647726 -0.8550503583141675 C-2.2997389064532023 -0.9910302842862798, -2.23741691682232 -1.1246802223496328, -2.165063509461099 -1.2499999999999956 C-2.092710102099878 -1.3753197776503583, -2.00812685533824 -1.4961171729167695, -1.9151111077974488 -1.606969024216344 C-1.8220953602566576 -1.7178208755159183, -1.7178208755159263 -1.82209536025665, -1.6069690242163523 -1.9151111077974416 C-1.4961171729167784 -2.0081268553382334, -1.3753197776503672 -2.0927101020998724, -1.2500000000000047 -2.1650635094610937 C-1.1246802223496422 -2.237416916822315, -0.9910302842862897 -2.299738906453198, -0.8550503583141776 -2.3492315519647686 C-0.7190704323420656 -2.3987241974763394, -0.5766288372196942 -2.4368913078579806, -0.43412044416733236 -2.462019382530519 C-0.29161205111497057 -2.4871474572030574, -0.1447068147224489 -2.4999999999999996, -7.120580697431198e-15 -2.5 C0.14470681472243463 -2.5000000000000004, 0.29161205111495647 -2.487147457203059, 0.4341204441673183 -2.4620193825305217 C0.5766288372196802 -2.436891307857984, 0.7190704323420518 -2.3987241974763442, 0.8550503583141642 -2.349231551964774 C0.9910302842862766 -2.2997389064532037, 1.1246802223496295 -2.2374169168223212, 1.2499999999999925 -2.165063509461101 C1.3753197776503554 -2.0927101020998804, 1.4961171729167668 -2.008126855338242, 1.6069690242163412 -1.915111107797451 C1.7178208755159157 -1.82209536025666, 1.8220953602566472 -1.7178208755159294, 1.915111107797439 -1.6069690242163557 C2.0081268553382308 -1.496117172916782, 2.09271010209987 -1.3753197776503712, 2.1650635094610915 -1.2500000000000089 C2.237416916822313 -1.1246802223496466, 2.299738906453196 -0.9910302842862939, 2.3492315519647673 -0.855050358314182 C2.3987241974763385 -0.71907043234207, 2.4368913078579792 -0.5766288372196986, 2.462019382530518 -0.4341204441673369 C2.487147457203057 -0.29161205111497523, 2.4936698970884197 -0.07235340736123454, 2.5 -1.1714553645825241e-14 C2.5063301029115803 0.07235340736121111, 2.50633010291158 -0.07235340736122292, 2.5 0" stroke="none" stroke-width="0" fill="#9370DB" style=""/><path d="M2.5 0 C2.5 0.14470681472244193, 2.487147457203058 0.29161205111496386, 2.46201938253052 0.4341204441673258 C2.436891307857982 0.5766288372196877, 2.3987241974763416 0.7190704323420595, 2.3492315519647713 0.8550503583141718 C2.299738906453201 0.991030284286284, 2.2374169168223177 1.124680222349637, 2.165063509461097 1.2499999999999998 C2.092710102099876 1.3753197776503625, 2.0081268553382365 1.496117172916774, 1.915111107797445 1.6069690242163481 C1.8220953602566536 1.7178208755159223, 1.7178208755159226 1.8220953602566536, 1.6069690242163484 1.915111107797445 C1.4961171729167742 2.0081268553382365, 1.375319777650363 2.0927101020998755, 1.2500000000000002 2.1650635094610964 C1.1246802223496375 2.2374169168223172, 0.9910302842862845 2.2997389064532, 0.8550503583141721 2.349231551964771 C0.7190704323420597 2.3987241974763416, 0.576628837219688 2.436891307857982, 0.43412044416732604 2.46201938253052 C0.291612051114964 2.487147457203058, 0.14470681472244212 2.5, 1.5308084989341916e-16 2.5 C-0.1447068147224418 2.5, -0.2916120511149638 2.487147457203058, -0.43412044416732576 2.46201938253052 C-0.5766288372196877 2.436891307857982, -0.7190704323420595 2.3987241974763416, -0.8550503583141718 2.3492315519647713 C-0.991030284286284 2.299738906453201, -1.124680222349637 2.2374169168223177, -1.2499999999999996 2.165063509461097 C-1.375319777650362 2.092710102099876, -1.4961171729167733 2.008126855338237, -1.6069690242163475 1.9151111077974459 C-1.7178208755159217 1.8220953602566548, -1.822095360256653 1.7178208755159234, -1.9151111077974443 1.6069690242163495 C-2.0081268553382357 1.4961171729167755, -2.0927101020998746 1.3753197776503645, -2.1650635094610955 1.250000000000002 C-2.2374169168223164 1.1246802223496395, -2.2997389064531992 0.9910302842862865, -2.34923155196477 0.8550503583141743 C-2.3987241974763407 0.7190704323420621, -2.436891307857981 0.5766288372196907, -2.4620193825305194 0.434120444167329 C-2.487147457203058 0.29161205111496724, -2.5 0.14470681472244545, -2.5 3.636830773662308e-15 C-2.5 -0.14470681472243818, -2.4871474572030587 -0.2916120511149599, -2.4620193825305208 -0.4341204441673218 C-2.436891307857983 -0.5766288372196837, -2.398724197476343 -0.7190704323420553, -2.3492315519647726 -0.8550503583141675 C-2.2997389064532023 -0.9910302842862798, -2.23741691682232 -1.1246802223496328, -2.165063509461099 -1.2499999999999956 C-2.092710102099878 -1.3753197776503583, -2.00812685533824 -1.4961171729167695, -1.9151111077974488 -1.606969024216344 C-1.8220953602566576 -1.7178208755159183, -1.7178208755159263 -1.82209536025665, -1.6069690242163523 -1.9151111077974416 C-1.4961171729167784 -2.0081268553382334, -1.3753197776503672 -2.0927101020998724, -1.2500000000000047 -2.1650635094610937 C-1.1246802223496422 -2.237416916822315, -0.9910302842862897 -2.299738906453198, -0.8550503583141776 -2.3492315519647686 C-0.7190704323420656 -2.3987241974763394, -0.5766288372196942 -2.4368913078579806, -0.43412044416733236 -2.462019382530519 C-0.29161205111497057 -2.4871474572030574, -0.1447068147224489 -2.4999999999999996, -7.120580697431198e-15 -2.5 C0.14470681472243463 -2.5000000000000004, 0.29161205111495647 -2.487147457203059, 0.4341204441673183 -2.4620193825305217 C0.5766288372196802 -2.436891307857984, 0.7190704323420518 -2.3987241974763442, 0.8550503583141642 -2.349231551964774 C0.9910302842862766 -2.2997389064532037, 1.1246802223496295 -2.2374169168223212, 1.2499999999999925 -2.165063509461101 C1.3753197776503554 -2.0927101020998804, 1.4961171729167668 -2.008126855338242, 1.6069690242163412 -1.915111107797451 C1.7178208755159157 -1.82209536025666, 1.8220953602566472 -1.7178208755159294, 1.915111107797439 -1.6069690242163557 C2.0081268553382308 -1.496117172916782, 2.09271010209987 -1.3753197776503712, 2.1650635094610915 -1.2500000000000089 C2.237416916822313 -1.1246802223496466, 2.299738906453196 -0.9910302842862939, 2.3492315519647673 -0.855050358314182 C2.3987241974763385 -0.71907043234207, 2.4368913078579792 -0.5766288372196986, 2.462019382530518 -0.4341204441673369 C2.487147457203057 -0.29161205111497523, 2.4936698970884197 -0.07235340736123454, 2.5 -1.1714553645825241e-14 C2.5063301029115803 0.07235340736121111, 2.50633010291158 -0.07235340736122292, 2.5 0" stroke="#9370DB" stroke-width="2" fill="none" stroke-dasharray="0 0" style=""/></g></g></g><g class="node  statediagram-state" id="my-svg-state-已取消-32" data-look="classic" transform="translate(1017.16015625, 974)"><rect class="basic label-container" style="" rx="5" ry="5" x="-32.0078125" y="-20" width="64.015625" height="40"/><g class="label" style="" transform="translate(-24.0078125, -12)"><rect/><foreignObject width="48.015625" height="24"><div xmlns="http://www.w3.org/1999/xhtml" style="display: table-cell; white-space: nowrap; line-height: 1.5; max-width: 200px; text-align: center;"><span class="nodeLabel markdown-node-label"><p>已取消</p></span></div></foreignObject></g></g><g class="node  statediagram-state" id="my-svg-state-支付中-35" data-look="classic" transform="translate(371.2421875, 424)"><rect class="basic label-container" style="" rx="5" ry="5" x="-32.0078125" y="-20" width="64.015625" height="40"/><g class="label" style="" transform="translate(-24.0078125, -12)"><rect/><foreignObject width="48.015625" height="24"><div xmlns="http://www.w3.org/1999/xhtml" style="display: table-cell; white-space: nowrap; line-height: 1.5; max-width: 200px; text-align: center;"><span class="nodeLabel markdown-node-label"><p>支付中</p></span></div></foreignObject></g></g><g class="node  statediagram-state" id="my-svg-state-已支付-36" data-look="classic" transform="translate(596.80078125, 626)"><rect class="basic label-container" style="" rx="5" ry="5" x="-32.0078125" y="-20" width="64.015625" height="40"/><g class="label" style="" transform="translate(-24.0078125, -12)"><rect/><foreignObject width="48.015625" height="24"><div xmlns="http://www.w3.org/1999/xhtml" style="display: table-cell; white-space: nowrap; line-height: 1.5; max-width: 200px; text-align: center;"><span class="nodeLabel markdown-node-label"><p>已支付</p></span></div></foreignObject></g></g><g class="node  statediagram-state" id="my-svg-state-待审核-11" data-look="classic" transform="translate(847.375, 828)"><rect class="basic label-container" style="" rx="5" ry="5" x="-32.0078125" y="-20" width="64.015625" height="40"/><g class="label" style="" transform="translate(-24.0078125, -12)"><rect/><foreignObject width="48.015625" height="24"><div xmlns="http://www.w3.org/1999/xhtml" style="display: table-cell; white-space: nowrap; line-height: 1.5; max-width: 200px; text-align: center;"><span class="nodeLabel markdown-node-label"><p>待审核</p></span></div></foreignObject></g></g><g class="node  statediagram-state" id="my-svg-state-拣货中-12" data-look="classic" transform="translate(583.90234375, 974)"><rect class="basic label-container" style="" rx="5" ry="5" x="-32.0078125" y="-20" width="64.015625" height="40"/><g class="label" style="" transform="translate(-24.0078125, -12)"><rect/><foreignObject width="48.015625" height="24"><div xmlns="http://www.w3.org/1999/xhtml" style="display: table-cell; white-space: nowrap; line-height: 1.5; max-width: 200px; text-align: center;"><span class="nodeLabel markdown-node-label"><p>拣货中</p></span></div></foreignObject></g></g><g class="node  statediagram-state" id="my-svg-state-已发货-14" data-look="classic" transform="translate(583.90234375, 1112)"><rect class="basic label-container" style="" rx="5" ry="5" x="-32.0078125" y="-20" width="64.015625" height="40"/><g class="label" style="" transform="translate(-24.0078125, -12)"><rect/><foreignObject width="48.015625" height="24"><div xmlns="http://www.w3.org/1999/xhtml" style="display: table-cell; white-space: nowrap; line-height: 1.5; max-width: 200px; text-align: center;"><span class="nodeLabel markdown-node-label"><p>已发货</p></span></div></foreignObject></g></g><g class="node  statediagram-state" id="my-svg-state-运输中-37" data-look="classic" transform="translate(719.25, 1226)"><rect class="basic label-container" style="" rx="5" ry="5" x="-32.0078125" y="-20" width="64.015625" height="40"/><g class="label" style="" transform="translate(-24.0078125, -12)"><rect/><foreignObject width="48.015625" height="24"><div xmlns="http://www.w3.org/1999/xhtml" style="display: table-cell; white-space: nowrap; line-height: 1.5; max-width: 200px; text-align: center;"><span class="nodeLabel markdown-node-label"><p>运输中</p></span></div></foreignObject></g></g><g class="node  statediagram-state" id="my-svg-state-海关查验-17" data-look="classic" transform="translate(661.7421875, 1372)"><rect class="basic label-container" style="" rx="5" ry="5" x="-40.0078125" y="-20" width="80.015625" height="40"/><g class="label" style="" transform="translate(-32.0078125, -12)"><rect/><foreignObject width="64.015625" height="24"><div xmlns="http://www.w3.org/1999/xhtml" style="display: table-cell; white-space: nowrap; line-height: 1.5; max-width: 200px; text-align: center;"><span class="nodeLabel markdown-node-label"><p>海关查验</p></span></div></foreignObject></g></g><g class="node  statediagram-state" id="my-svg-state-海关扣留-18" data-look="classic" transform="translate(565.8773437496275, 1550)"><rect class="basic label-container" style="" rx="5" ry="5" x="-40.0078125" y="-20" width="80.015625" height="40"/><g class="label" style="" transform="translate(-32.0078125, -12)"><rect/><foreignObject width="64.015625" height="24"><div xmlns="http://www.w3.org/1999/xhtml" style="display: table-cell; white-space: nowrap; line-height: 1.5; max-width: 200px; text-align: center;"><span class="nodeLabel markdown-node-label"><p>海关扣留</p></span></div></foreignObject></g></g><g class="node  statediagram-state" id="my-svg-state-已签收-38" data-look="classic" transform="translate(1149.40625, 1372)"><rect class="basic label-container" style="" rx="5" ry="5" x="-32.0078125" y="-20" width="64.015625" height="40"/><g class="label" style="" transform="translate(-24.0078125, -12)"><rect/><foreignObject width="48.015625" height="24"><div xmlns="http://www.w3.org/1999/xhtml" style="display: table-cell; white-space: nowrap; line-height: 1.5; max-width: 200px; text-align: center;"><span class="nodeLabel markdown-node-label"><p>已签收</p></span></div></foreignObject></g></g><g class="node  statediagram-state" id="my-svg-state-配送异常-22" data-look="classic" transform="translate(1647.9140625, 1372)"><rect class="basic label-container" style="" rx="5" ry="5" x="-40.0078125" y="-20" width="80.015625" height="40"/><g class="label" style="" transform="translate(-32.0078125, -12)"><rect/><foreignObject width="64.015625" height="24"><div xmlns="http://www.w3.org/1999/xhtml" style="display: table-cell; white-space: nowrap; line-height: 1.5; max-width: 200px; text-align: center;"><span class="nodeLabel markdown-node-label"><p>配送异常</p></span></div></foreignObject></g></g><g class="node  statediagram-state" id="my-svg-state-已退回-29" data-look="classic" transform="translate(1516.171875, 1948)"><rect class="basic label-container" style="" rx="5" ry="5" x="-32.0078125" y="-20" width="64.015625" height="40"/><g class="label" style="" transform="translate(-24.0078125, -12)"><rect/><foreignObject width="48.015625" height="24"><div xmlns="http://www.w3.org/1999/xhtml" style="display: table-cell; white-space: nowrap; line-height: 1.5; max-width: 200px; text-align: center;"><span class="nodeLabel markdown-node-label"><p>已退回</p></span></div></foreignObject></g></g><g class="node  statediagram-state" id="my-svg-state-已完成-31" data-look="classic" transform="translate(1149.40625, 1720)"><rect class="basic label-container" style="" rx="5" ry="5" x="-32.0078125" y="-20" width="64.015625" height="40"/><g class="label" style="" transform="translate(-24.0078125, -12)"><rect/><foreignObject width="48.015625" height="24"><div xmlns="http://www.w3.org/1999/xhtml" style="display: table-cell; white-space: nowrap; line-height: 1.5; max-width: 200px; text-align: center;"><span class="nodeLabel markdown-node-label"><p>已完成</p></span></div></foreignObject></g></g><g class="node  statediagram-state" id="my-svg-state-退款中-30" data-look="classic" transform="translate(1284.421875, 1550)"><rect class="basic label-container" style="" rx="5" ry="5" x="-32.0078125" y="-20" width="64.015625" height="40"/><g class="label" style="" transform="translate(-24.0078125, -12)"><rect/><foreignObject width="48.015625" height="24"><div xmlns="http://www.w3.org/1999/xhtml" style="display: table-cell; white-space: nowrap; line-height: 1.5; max-width: 200px; text-align: center;"><span class="nodeLabel markdown-node-label"><p>退款中</p></span></div></foreignObject></g></g><g class="node  statediagram-state" id="my-svg-state-待退货-26" data-look="classic" transform="translate(1540.8984375, 1720)"><rect class="basic label-container" style="" rx="5" ry="5" x="-32.0078125" y="-20" width="64.015625" height="40"/><g class="label" style="" transform="translate(-24.0078125, -12)"><rect/><foreignObject width="48.015625" height="24"><div xmlns="http://www.w3.org/1999/xhtml" style="display: table-cell; white-space: nowrap; line-height: 1.5; max-width: 200px; text-align: center;"><span class="nodeLabel markdown-node-label"><p>待退货</p></span></div></foreignObject></g></g><g class="node  statediagram-state" id="my-svg-state-退货中-27" data-look="classic" transform="translate(1540.8984375, 1834)"><rect class="basic label-container" style="" rx="5" ry="5" x="-32.0078125" y="-20" width="64.015625" height="40"/><g class="label" style="" transform="translate(-24.0078125, -12)"><rect/><foreignObject width="48.015625" height="24"><div xmlns="http://www.w3.org/1999/xhtml" style="display: table-cell; white-space: nowrap; line-height: 1.5; max-width: 200px; text-align: center;"><span class="nodeLabel markdown-node-label"><p>退货中</p></span></div></foreignObject></g></g><g class="node  statediagram-state" id="my-svg-state-已退款-33" data-look="classic" transform="translate(950.15234375, 1720)"><rect class="basic label-container" style="" rx="5" ry="5" x="-32.0078125" y="-20" width="64.015625" height="40"/><g class="label" style="" transform="translate(-24.0078125, -12)"><rect/><foreignObject width="48.015625" height="24"><div xmlns="http://www.w3.org/1999/xhtml" style="display: table-cell; white-space: nowrap; line-height: 1.5; max-width: 200px; text-align: center;"><span class="nodeLabel markdown-node-label"><p>已退款</p></span></div></foreignObject></g></g><g class="node statediagram-note" id="my-svg-state-待支付----note-34" data-look="classic" transform="translate(114.015625, 424)"><g class="basic label-container outer-path"><path d="M-71.015625 -27 L71.015625 -27 L71.015625 27 L-71.015625 27" stroke="none" stroke-width="0" fill="#fff5ad" style=""/><path d="M-71.015625 -27 C-41.63373387726929 -27, -12.251842754538579 -27, 71.015625 -27 M-71.015625 -27 C-20.757737546169437 -27, 29.500149907661125 -27, 71.015625 -27 M71.015625 -27 C71.015625 -7.3282486826116475, 71.015625 12.343502634776705, 71.015625 27 M71.015625 -27 C71.015625 -6.307253059298411, 71.015625 14.385493881403178, 71.015625 27 M71.015625 27 C18.43604703077488 27, -34.14353093845024 27, -71.015625 27 M71.015625 27 C28.912323636928832 27, -13.190977726142336 27, -71.015625 27 M-71.015625 27 C-71.015625 8.500921071897409, -71.015625 -9.998157856205182, -71.015625 -27 M-71.015625 27 C-71.015625 15.326902519950469, -71.015625 3.653805039900938, -71.015625 -27" stroke="#aaaa33" stroke-width="1.3" fill="none" stroke-dasharray="0 0" style=""/></g><g class="label noteLabel" style="" transform="translate(-56.015625, -12)"><rect/><foreignObject width="112.03125" height="24"><div xmlns="http://www.w3.org/1999/xhtml" style="display: table-cell; white-space: nowrap; line-height: 1.5; max-width: 200px; text-align: center;"><span class="nodeLabel markdown-node-label"><p>库存预占 30min</p></span></div></foreignObject></g></g><g class="node statediagram-note" id="my-svg-state-支付中----note-35" data-look="classic" transform="translate(268.9453125, 626)"><g class="basic label-container outer-path"><path d="M-113.7265625 -27 L113.7265625 -27 L113.7265625 27 L-113.7265625 27" stroke="none" stroke-width="0" fill="#fff5ad" style=""/><path d="M-113.7265625 -27 C-50.961166695897504 -27, 11.804229108204993 -27, 113.7265625 -27 M-113.7265625 -27 C-54.13273637944689 -27, 5.461089741106221 -27, 113.7265625 -27 M113.7265625 -27 C113.7265625 -5.7437426084180885, 113.7265625 15.512514783163823, 113.7265625 27 M113.7265625 -27 C113.7265625 -10.356482883775502, 113.7265625 6.287034232448995, 113.7265625 27 M113.7265625 27 C65.0807365154659 27, 16.434910530931788 27, -113.7265625 27 M113.7265625 27 C66.25077482583063 27, 18.774987151661264 27, -113.7265625 27 M-113.7265625 27 C-113.7265625 13.134084090441664, -113.7265625 -0.7318318191166711, -113.7265625 -27 M-113.7265625 27 C-113.7265625 14.296981901203585, -113.7265625 1.5939638024071705, -113.7265625 -27" stroke="#aaaa33" stroke-width="1.3" fill="none" stroke-dasharray="0 0" style=""/></g><g class="label noteLabel" style="" transform="translate(-98.7265625, -12)"><rect/><foreignObject width="197.453125" height="24"><div xmlns="http://www.w3.org/1999/xhtml" style="display: table-cell; white-space: nowrap; line-height: 1.5; max-width: 200px; text-align: center;"><span class="nodeLabel markdown-node-label"><p>Stripe/PayPal/Klarna/Adyen</p></span></div></foreignObject></g></g><g class="node statediagram-note" id="my-svg-state-已支付----note-36" data-look="classic" transform="translate(437.671875, 828)"><g class="basic label-container outer-path"><path d="M-65.2265625 -27 L65.2265625 -27 L65.2265625 27 L-65.2265625 27" stroke="none" stroke-width="0" fill="#fff5ad" style=""/><path d="M-65.2265625 -27 C-33.2119357062544 -27, -1.1973089125088023 -27, 65.2265625 -27 M-65.2265625 -27 C-35.41161184090592 -27, -5.596661181811847 -27, 65.2265625 -27 M65.2265625 -27 C65.2265625 -10.956805196867144, 65.2265625 5.086389606265712, 65.2265625 27 M65.2265625 -27 C65.2265625 -8.008147877141457, 65.2265625 10.983704245717085, 65.2265625 27 M65.2265625 27 C31.924398444746195 27, -1.377765610507609 27, -65.2265625 27 M65.2265625 27 C14.957124025448955 27, -35.31231444910209 27, -65.2265625 27 M-65.2265625 27 C-65.2265625 11.792502086001035, -65.2265625 -3.414995827997931, -65.2265625 -27 M-65.2265625 27 C-65.2265625 14.515822787823558, -65.2265625 2.031645575647115, -65.2265625 -27" stroke="#aaaa33" stroke-width="1.3" fill="none" stroke-dasharray="0 0" style=""/></g><g class="label noteLabel" style="" transform="translate(-50.2265625, -12)"><rect/><foreignObject width="100.453125" height="24"><div xmlns="http://www.w3.org/1999/xhtml" style="display: table-cell; white-space: nowrap; line-height: 1.5; max-width: 200px; text-align: center;"><span class="nodeLabel markdown-node-label"><p>库存扣减 永久</p></span></div></foreignObject></g></g><g class="node statediagram-note" id="my-svg-state-运输中----note-37" data-look="classic" transform="translate(125.8828125, 1372)"><g class="basic label-container outer-path"><path d="M-82.8828125 -27 L82.8828125 -27 L82.8828125 27 L-82.8828125 27" stroke="none" stroke-width="0" fill="#fff5ad" style=""/><path d="M-82.8828125 -27 C-31.594251090634195 -27, 19.69431031873161 -27, 82.8828125 -27 M-82.8828125 -27 C-28.595776479402815 -27, 25.69125954119437 -27, 82.8828125 -27 M82.8828125 -27 C82.8828125 -12.735865853862933, 82.8828125 1.5282682922741344, 82.8828125 27 M82.8828125 -27 C82.8828125 -6.239948034882229, 82.8828125 14.520103930235543, 82.8828125 27 M82.8828125 27 C39.583237494055616 27, -3.716337511888767 27, -82.8828125 27 M82.8828125 27 C28.86766541059407 27, -25.147481678811857 27, -82.8828125 27 M-82.8828125 27 C-82.8828125 6.721851758298332, -82.8828125 -13.556296483403337, -82.8828125 -27 M-82.8828125 27 C-82.8828125 13.35097767783572, -82.8828125 -0.29804464432855937, -82.8828125 -27" stroke="#aaaa33" stroke-width="1.3" fill="none" stroke-dasharray="0 0" style=""/></g><g class="label noteLabel" style="" transform="translate(-67.8828125, -12)"><rect/><foreignObject width="135.765625" height="24"><div xmlns="http://www.w3.org/1999/xhtml" style="display: table-cell; white-space: nowrap; line-height: 1.5; max-width: 200px; text-align: center;"><span class="nodeLabel markdown-node-label"><p>Webhook 推送更新</p></span></div></foreignObject></g></g><g class="node statediagram-note" id="my-svg-state-已签收----note-38" data-look="classic" transform="translate(819.69921875, 1550)"><g class="basic label-container outer-path"><path d="M-75.453125 -27 L75.453125 -27 L75.453125 27 L-75.453125 27" stroke="none" stroke-width="0" fill="#fff5ad" style=""/><path d="M-75.453125 -27 C-31.186625547682127 -27, 13.079873904635747 -27, 75.453125 -27 M-75.453125 -27 C-36.56655364423733 -27, 2.320017711525338 -27, 75.453125 -27 M75.453125 -27 C75.453125 -8.538553043412652, 75.453125 9.922893913174697, 75.453125 27 M75.453125 -27 C75.453125 -12.33449336046722, 75.453125 2.3310132790655587, 75.453125 27 M75.453125 27 C34.921545981696845 27, -5.6100330366063105 27, -75.453125 27 M75.453125 27 C17.95047226058761 27, -39.55218047882478 27, -75.453125 27 M-75.453125 27 C-75.453125 9.249961038748296, -75.453125 -8.500077922503408, -75.453125 -27 M-75.453125 27 C-75.453125 6.767908892286705, -75.453125 -13.46418221542659, -75.453125 -27" stroke="#aaaa33" stroke-width="1.3" fill="none" stroke-dasharray="0 0" style=""/></g><g class="label noteLabel" style="" transform="translate(-60.453125, -12)"><rect/><foreignObject width="120.90625" height="24"><div xmlns="http://www.w3.org/1999/xhtml" style="display: table-cell; white-space: nowrap; line-height: 1.5; max-width: 200px; text-align: center;"><span class="nodeLabel markdown-node-label"><p>7天自动确认收货</p></span></div></foreignObject></g></g><g class="label edgeLabel" id="已发货---已发货---1" transform="translate(515.71875, 1226)"><rect width="0.1" height="0.1"/><g class="label" style="" transform="translate(0, 0)"><rect/><foreignObject width="0" height="0"><div xmlns="http://www.w3.org/1999/xhtml" style="display: table-cell; white-space: nowrap; line-height: 1.5; max-width: 10px; text-align: center;"><span class="nodeLabel"></span></div></foreignObject></g></g><g class="label edgeLabel" id="已发货---已发货---2" transform="translate(481.71484375, 1372)"><rect width="0.1" height="0.1"/><g class="label" style="" transform="translate(0, 0)"><rect/><foreignObject width="0" height="0"><div xmlns="http://www.w3.org/1999/xhtml" style="display: table-cell; white-space: nowrap; line-height: 1.5; max-width: 10px; text-align: center;"><span class="nodeLabel"></span></div></foreignObject></g></g></g></g></g><defs><filter id="my-svg-drop-shadow" height="130%" width="130%"><feDropShadow dx="4" dy="4" stdDeviation="0" flood-opacity="0.06" flood-color="#000000"/></filter></defs><defs><filter id="my-svg-drop-shadow-small" height="150%" width="150%"><feDropShadow dx="2" dy="2" stdDeviation="0" flood-opacity="0.06" flood-color="#000000"/></filter></defs></svg>